<?xml version="1.0" encoding="utf-8" standalone="no"?>
<!DOCTYPE svg PUBLIC "-//W3C//DTD SVG 1.1//EN"
  "http://www.w3.org/Graphics/SVG/1.1/DTD/svg11.dtd">
<svg height="288pt" version="1.1" viewBox="0 0 432 288" width="432pt" xmlns="http://www.w3.org/2000/svg" xmlns:xlink="http://www.w3.org/1999/xlink">
 <metadata>
  <rdf:RDF xmlns:cc="http://creativecommons.org/ns#" xmlns:dc="http://purl.org/dc/elements/1.1/" xmlns:rdf="http://www.w3.org/1999/02/22-rdf-syntax-ns#">
   <cc:Work>
    <dc:type rdf:resource="http://purl.org/dc/dcmitype/StillImage"/>
    <dc:date>2021-09-20T00:12:15.737700</dc:date>
    <dc:format>image/svg+xml</dc:format>
    <dc:creator>
     <cc:Agent>
      <dc:title>Matplotlib v3.4.3, https://matplotlib.org/</dc:title>
     </cc:Agent>
    </dc:creator>
   </cc:Work>
  </rdf:RDF>
 </metadata>
 <defs>
  <style type="text/css">*{stroke-linecap:butt;stroke-linejoin:round;}</style>
 </defs>
 <g id="figure_1">
  <g id="patch_1">
   <path d="M 0 288 
L 432 288 
L 432 0 
L 0 0 
z
" style="fill:none;"/>
  </g>
  <g id="axes_1">
   <g id="patch_2">
    <path d="M 97.148571 252 
L 345.651429 252 
L 345.651429 34.56 
L 97.148571 34.56 
z
" style="fill:#ffffff;"/>
   </g>
   <g id="PathCollection_1">
    <defs>
     <path d="M 0 3 
C 0.795609 3 1.55874 2.683901 2.12132 2.12132 
C 2.683901 1.55874 3 0.795609 3 0 
C 3 -0.795609 2.683901 -1.55874 2.12132 -2.12132 
C 1.55874 -2.683901 0.795609 -3 0 -3 
C -0.795609 -3 -1.55874 -2.683901 -2.12132 -2.12132 
C -2.683901 -1.55874 -3 -0.795609 -3 0 
C -3 0.795609 -2.683901 1.55874 -2.12132 2.12132 
C -1.55874 2.683901 -0.795609 3 0 3 
z
" id="mb4db55d7f0" style="stroke:#ffffff;stroke-width:0.48;"/>
    </defs>
    <g clip-path="url(#pcbcabf93a0)">
     <use style="fill:#1f77b4;stroke:#ffffff;stroke-width:0.48;" x="217.649893" xlink:href="#mb4db55d7f0" y="140.574988"/>
     <use style="fill:#1f77b4;stroke:#ffffff;stroke-width:0.48;" x="221.023394" xlink:href="#mb4db55d7f0" y="167.445971"/>
     <use style="fill:#1f77b4;stroke:#ffffff;stroke-width:0.48;" x="163.400998" xlink:href="#mb4db55d7f0" y="143.799506"/>
     <use style="fill:#1f77b4;stroke:#ffffff;stroke-width:0.48;" x="235.666526" xlink:href="#mb4db55d7f0" y="99.372813"/>
     <use style="fill:#1f77b4;stroke:#ffffff;stroke-width:0.48;" x="269.259188" xlink:href="#mb4db55d7f0" y="93.998616"/>
     <use style="fill:#1f77b4;stroke:#ffffff;stroke-width:0.48;" x="131.233069" xlink:href="#mb4db55d7f0" y="182.852002"/>
     <use style="fill:#1f77b4;stroke:#ffffff;stroke-width:0.48;" x="153.750953" xlink:href="#mb4db55d7f0" y="191.808997"/>
     <use style="fill:#1f77b4;stroke:#ffffff;stroke-width:0.48;" x="214.620495" xlink:href="#mb4db55d7f0" y="157.772417"/>
     <use style="fill:#1f77b4;stroke:#ffffff;stroke-width:0.48;" x="199.61834" xlink:href="#mb4db55d7f0" y="164.938013"/>
     <use style="fill:#1f77b4;stroke:#ffffff;stroke-width:0.48;" x="313.957492" xlink:href="#mb4db55d7f0" y="64.977954"/>
     <use style="fill:#1f77b4;stroke:#ffffff;stroke-width:0.48;" x="139.29212" xlink:href="#mb4db55d7f0" y="215.455462"/>
     <use style="fill:#1f77b4;stroke:#ffffff;stroke-width:0.48;" x="137.442984" xlink:href="#mb4db55d7f0" y="188.942758"/>
     <use style="fill:#1f77b4;stroke:#ffffff;stroke-width:0.48;" x="108.530261" xlink:href="#mb4db55d7f0" y="238.027088"/>
     <use style="fill:#1f77b4;stroke:#ffffff;stroke-width:0.48;" x="213.421705" xlink:href="#mb4db55d7f0" y="190.734157"/>
     <use style="fill:#1f77b4;stroke:#ffffff;stroke-width:0.48;" x="189.926652" xlink:href="#mb4db55d7f0" y="142.366387"/>
     <use style="fill:#1f77b4;stroke:#ffffff;stroke-width:0.48;" x="198.725929" xlink:href="#mb4db55d7f0" y="116.570242"/>
     <use style="fill:#1f77b4;stroke:#ffffff;stroke-width:0.48;" x="143.920663" xlink:href="#mb4db55d7f0" y="204.707069"/>
     <use style="fill:#1f77b4;stroke:#ffffff;stroke-width:0.48;" x="170.877802" xlink:href="#mb4db55d7f0" y="187.867919"/>
     <use style="fill:#1f77b4;stroke:#ffffff;stroke-width:0.48;" x="156.852593" xlink:href="#mb4db55d7f0" y="210.439545"/>
     <use style="fill:#1f77b4;stroke:#ffffff;stroke-width:0.48;" x="161.319372" xlink:href="#mb4db55d7f0" y="209.006426"/>
     <use style="fill:#1f77b4;stroke:#ffffff;stroke-width:0.48;" x="129.190414" xlink:href="#mb4db55d7f0" y="190.375877"/>
     <use style="fill:#1f77b4;stroke:#ffffff;stroke-width:0.48;" x="131.359156" xlink:href="#mb4db55d7f0" y="205.423628"/>
     <use style="fill:#1f77b4;stroke:#ffffff;stroke-width:0.48;" x="110.1323" xlink:href="#mb4db55d7f0" y="227.278695"/>
     <use style="fill:#1f77b4;stroke:#ffffff;stroke-width:0.48;" x="120.101594" xlink:href="#mb4db55d7f0" y="229.070094"/>
     <use style="fill:#1f77b4;stroke:#ffffff;stroke-width:0.48;" x="142.366948" xlink:href="#mb4db55d7f0" y="219.39654"/>
     <use style="fill:#1f77b4;stroke:#ffffff;stroke-width:0.48;" x="136.494766" xlink:href="#mb4db55d7f0" y="220.829659"/>
     <use style="fill:#1f77b4;stroke:#ffffff;stroke-width:0.48;" x="107.402599" xlink:href="#mb4db55d7f0" y="239.818487"/>
     <use style="fill:#1f77b4;stroke:#ffffff;stroke-width:0.48;" x="115.761838" xlink:href="#mb4db55d7f0" y="237.310529"/>
     <use style="fill:#1f77b4;stroke:#ffffff;stroke-width:0.48;" x="146.063083" xlink:href="#mb4db55d7f0" y="225.487296"/>
     <use style="fill:#1f77b4;stroke:#ffffff;stroke-width:0.48;" x="143.241589" xlink:href="#mb4db55d7f0" y="220.829659"/>
     <use style="fill:#1f77b4;stroke:#ffffff;stroke-width:0.48;" x="107.995313" xlink:href="#mb4db55d7f0" y="221.546218"/>
     <use style="fill:#1f77b4;stroke:#ffffff;stroke-width:0.48;" x="112.184664" xlink:href="#mb4db55d7f0" y="231.219773"/>
     <use style="fill:#1f77b4;stroke:#ffffff;stroke-width:0.48;" x="120.487607" xlink:href="#mb4db55d7f0" y="217.963421"/>
     <use style="fill:#1f77b4;stroke:#ffffff;stroke-width:0.48;" x="114.179129" xlink:href="#mb4db55d7f0" y="229.070094"/>
     <use style="fill:#1f77b4;stroke:#ffffff;stroke-width:0.48;" x="162.574904" xlink:href="#mb4db55d7f0" y="205.781908"/>
     <use style="fill:#1f77b4;stroke:#ffffff;stroke-width:0.48;" x="132.723895" xlink:href="#mb4db55d7f0" y="226.562135"/>
     <use style="fill:#1f77b4;stroke:#ffffff;stroke-width:0.48;" x="112.455545" xlink:href="#mb4db55d7f0" y="220.471379"/>
     <use style="fill:#1f77b4;stroke:#ffffff;stroke-width:0.48;" x="101.341263" xlink:href="#mb4db55d7f0" y="245.909244"/>
     <use style="fill:#1f77b4;stroke:#ffffff;stroke-width:0.48;" x="203.836107" xlink:href="#mb4db55d7f0" y="183.210282"/>
     <use style="fill:#1f77b4;stroke:#ffffff;stroke-width:0.48;" x="98.496208" xlink:href="#mb4db55d7f0" y="251.28344"/>
     <use style="fill:#1f77b4;stroke:#ffffff;stroke-width:0.48;" x="109.813451" xlink:href="#mb4db55d7f0" y="240.176767"/>
     <use style="fill:#1f77b4;stroke:#ffffff;stroke-width:0.48;" x="100.323343" xlink:href="#mb4db55d7f0" y="250.208601"/>
     <use style="fill:#1f77b4;stroke:#ffffff;stroke-width:0.48;" x="141.843624" xlink:href="#mb4db55d7f0" y="182.852002"/>
     <use style="fill:#1f77b4;stroke:#ffffff;stroke-width:0.48;" x="102.36916" xlink:href="#mb4db55d7f0" y="242.326446"/>
     <use style="fill:#1f77b4;stroke:#ffffff;stroke-width:0.48;" x="109.47113" xlink:href="#mb4db55d7f0" y="233.369451"/>
     <use style="fill:#1f77b4;stroke:#ffffff;stroke-width:0.48;" x="101.162798" xlink:href="#mb4db55d7f0" y="246.267523"/>
     <use style="fill:#1f77b4;stroke:#ffffff;stroke-width:0.48;" x="147.349435" xlink:href="#mb4db55d7f0" y="227.278695"/>
     <use style="fill:#1f77b4;stroke:#ffffff;stroke-width:0.48;" x="132.113945" xlink:href="#mb4db55d7f0" y="215.097182"/>
     <use style="fill:#1f77b4;stroke:#ffffff;stroke-width:0.48;" x="132.483656" xlink:href="#mb4db55d7f0" y="203.632229"/>
     <use style="fill:#1f77b4;stroke:#ffffff;stroke-width:0.48;" x="139.783332" xlink:href="#mb4db55d7f0" y="234.80257"/>
     <use style="fill:#1f77b4;stroke:#ffffff;stroke-width:0.48;" x="133.788002" xlink:href="#mb4db55d7f0" y="223.695897"/>
     <use style="fill:#1f77b4;stroke:#ffffff;stroke-width:0.48;" x="141.749203" xlink:href="#mb4db55d7f0" y="213.664063"/>
     <use style="fill:#1f77b4;stroke:#ffffff;stroke-width:0.48;" x="120.586081" xlink:href="#mb4db55d7f0" y="234.444291"/>
     <use style="fill:#1f77b4;stroke:#ffffff;stroke-width:0.48;" x="118.321848" xlink:href="#mb4db55d7f0" y="209.722986"/>
     <use style="fill:#1f77b4;stroke:#ffffff;stroke-width:0.48;" x="118.790212" xlink:href="#mb4db55d7f0" y="204.707069"/>
     <use style="fill:#1f77b4;stroke:#ffffff;stroke-width:0.48;" x="112.381567" xlink:href="#mb4db55d7f0" y="217.246861"/>
     <use style="fill:#1f77b4;stroke:#ffffff;stroke-width:0.48;" x="121.250813" xlink:href="#mb4db55d7f0" y="219.03826"/>
     <use style="fill:#1f77b4;stroke:#ffffff;stroke-width:0.48;" x="149.800951" xlink:href="#mb4db55d7f0" y="206.498468"/>
     <use style="fill:#1f77b4;stroke:#ffffff;stroke-width:0.48;" x="143.678909" xlink:href="#mb4db55d7f0" y="212.589224"/>
     <use style="fill:#1f77b4;stroke:#ffffff;stroke-width:0.48;" x="116.000073" xlink:href="#mb4db55d7f0" y="217.605141"/>
     <use style="fill:#1f77b4;stroke:#ffffff;stroke-width:0.48;" x="129.648712" xlink:href="#mb4db55d7f0" y="224.770737"/>
     <use style="fill:#1f77b4;stroke:#ffffff;stroke-width:0.48;" x="161.968116" xlink:href="#mb4db55d7f0" y="203.27395"/>
     <use style="fill:#1f77b4;stroke:#ffffff;stroke-width:0.48;" x="153.088003" xlink:href="#mb4db55d7f0" y="204.348789"/>
     <use style="fill:#1f77b4;stroke:#ffffff;stroke-width:0.48;" x="197.343686" xlink:href="#mb4db55d7f0" y="166.729412"/>
     <use style="fill:#1f77b4;stroke:#ffffff;stroke-width:0.48;" x="113.07623" xlink:href="#mb4db55d7f0" y="232.294612"/>
     <use style="fill:#1f77b4;stroke:#ffffff;stroke-width:0.48;" x="114.470765" xlink:href="#mb4db55d7f0" y="215.813742"/>
     <use style="fill:#1f77b4;stroke:#ffffff;stroke-width:0.48;" x="102.22156" xlink:href="#mb4db55d7f0" y="246.267523"/>
     <use style="fill:#1f77b4;stroke:#ffffff;stroke-width:0.48;" x="213.762378" xlink:href="#mb4db55d7f0" y="150.248542"/>
     <use style="fill:#1f77b4;stroke:#ffffff;stroke-width:0.48;" x="123.364462" xlink:href="#mb4db55d7f0" y="235.16085"/>
     <use style="fill:#1f77b4;stroke:#ffffff;stroke-width:0.48;" x="120.12079" xlink:href="#mb4db55d7f0" y="225.129016"/>
     <use style="fill:#1f77b4;stroke:#ffffff;stroke-width:0.48;" x="103.457272" xlink:href="#mb4db55d7f0" y="243.759565"/>
     <use style="fill:#1f77b4;stroke:#ffffff;stroke-width:0.48;" x="145.830148" xlink:href="#mb4db55d7f0" y="224.054177"/>
     <use style="fill:#1f77b4;stroke:#ffffff;stroke-width:0.48;" x="139.324188" xlink:href="#mb4db55d7f0" y="200.049432"/>
     <use style="fill:#1f77b4;stroke:#ffffff;stroke-width:0.48;" x="144.809333" xlink:href="#mb4db55d7f0" y="181.060603"/>
     <use style="fill:#1f77b4;stroke:#ffffff;stroke-width:0.48;" x="164.740128" xlink:href="#mb4db55d7f0" y="218.67998"/>
     <use style="fill:#1f77b4;stroke:#ffffff;stroke-width:0.48;" x="147.751036" xlink:href="#mb4db55d7f0" y="194.316955"/>
     <use style="fill:#1f77b4;stroke:#ffffff;stroke-width:0.48;" x="151.065167" xlink:href="#mb4db55d7f0" y="187.509639"/>
     <use style="fill:#1f77b4;stroke:#ffffff;stroke-width:0.48;" x="115.994372" xlink:href="#mb4db55d7f0" y="221.187939"/>
     <use style="fill:#1f77b4;stroke:#ffffff;stroke-width:0.48;" x="104.09114" xlink:href="#mb4db55d7f0" y="240.893327"/>
     <use style="fill:#1f77b4;stroke:#ffffff;stroke-width:0.48;" x="103.577481" xlink:href="#mb4db55d7f0" y="230.144933"/>
     <use style="fill:#1f77b4;stroke:#ffffff;stroke-width:0.48;" x="99.01579" xlink:href="#mb4db55d7f0" y="247.342363"/>
     <use style="fill:#1f77b4;stroke:#ffffff;stroke-width:0.48;" x="130.928917" xlink:href="#mb4db55d7f0" y="222.262778"/>
     <use style="fill:#1f77b4;stroke:#ffffff;stroke-width:0.48;" x="107.985292" xlink:href="#mb4db55d7f0" y="244.834404"/>
     <use style="fill:#1f77b4;stroke:#ffffff;stroke-width:0.48;" x="106.548668" xlink:href="#mb4db55d7f0" y="236.952249"/>
     <use style="fill:#1f77b4;stroke:#ffffff;stroke-width:0.48;" x="99.733791" xlink:href="#mb4db55d7f0" y="247.700643"/>
     <use style="fill:#1f77b4;stroke:#ffffff;stroke-width:0.48;" x="179.096345" xlink:href="#mb4db55d7f0" y="192.167276"/>
     <use style="fill:#1f77b4;stroke:#ffffff;stroke-width:0.48;" x="113.300925" xlink:href="#mb4db55d7f0" y="240.176767"/>
     <use style="fill:#1f77b4;stroke:#ffffff;stroke-width:0.48;" x="112.162039" xlink:href="#mb4db55d7f0" y="236.23569"/>
     <use style="fill:#1f77b4;stroke:#ffffff;stroke-width:0.48;" x="101.5069" xlink:href="#mb4db55d7f0" y="248.775482"/>
     <use style="fill:#1f77b4;stroke:#ffffff;stroke-width:0.48;" x="179.383572" xlink:href="#mb4db55d7f0" y="185.35996"/>
     <use style="fill:#1f77b4;stroke:#ffffff;stroke-width:0.48;" x="105.360478" xlink:href="#mb4db55d7f0" y="245.550964"/>
     <use style="fill:#1f77b4;stroke:#ffffff;stroke-width:0.48;" x="106.60051" xlink:href="#mb4db55d7f0" y="241.609886"/>
     <use style="fill:#1f77b4;stroke:#ffffff;stroke-width:0.48;" x="99.719494" xlink:href="#mb4db55d7f0" y="250.208601"/>
     <use style="fill:#1f77b4;stroke:#ffffff;stroke-width:0.48;" x="107.63246" xlink:href="#mb4db55d7f0" y="235.51913"/>
     <use style="fill:#1f77b4;stroke:#ffffff;stroke-width:0.48;" x="113.314642" xlink:href="#mb4db55d7f0" y="224.412457"/>
     <use style="fill:#1f77b4;stroke:#ffffff;stroke-width:0.48;" x="104.583109" xlink:href="#mb4db55d7f0" y="226.920415"/>
     <use style="fill:#1f77b4;stroke:#ffffff;stroke-width:0.48;" x="112.086146" xlink:href="#mb4db55d7f0" y="245.909244"/>
     <use style="fill:#1f77b4;stroke:#ffffff;stroke-width:0.48;" x="117.178375" xlink:href="#mb4db55d7f0" y="231.219773"/>
     <use style="fill:#1f77b4;stroke:#ffffff;stroke-width:0.48;" x="118.783576" xlink:href="#mb4db55d7f0" y="220.113099"/>
     <use style="fill:#1f77b4;stroke:#ffffff;stroke-width:0.48;" x="140.397425" xlink:href="#mb4db55d7f0" y="231.578052"/>
     <use style="fill:#1f77b4;stroke:#ffffff;stroke-width:0.48;" x="132.562444" xlink:href="#mb4db55d7f0" y="221.187939"/>
     <use style="fill:#1f77b4;stroke:#ffffff;stroke-width:0.48;" x="135.957769" xlink:href="#mb4db55d7f0" y="211.156105"/>
     <use style="fill:#1f77b4;stroke:#ffffff;stroke-width:0.48;" x="144.751389" xlink:href="#mb4db55d7f0" y="233.727731"/>
     <use style="fill:#1f77b4;stroke:#ffffff;stroke-width:0.48;" x="118.316905" xlink:href="#mb4db55d7f0" y="221.546218"/>
     <use style="fill:#1f77b4;stroke:#ffffff;stroke-width:0.48;" x="130.84719" xlink:href="#mb4db55d7f0" y="214.380623"/>
     <use style="fill:#1f77b4;stroke:#ffffff;stroke-width:0.48;" x="170.420751" xlink:href="#mb4db55d7f0" y="220.829659"/>
     <use style="fill:#1f77b4;stroke:#ffffff;stroke-width:0.48;" x="162.354039" xlink:href="#mb4db55d7f0" y="183.568562"/>
     <use style="fill:#1f77b4;stroke:#ffffff;stroke-width:0.48;" x="175.479844" xlink:href="#mb4db55d7f0" y="164.938013"/>
     <use style="fill:#1f77b4;stroke:#ffffff;stroke-width:0.48;" x="115.658331" xlink:href="#mb4db55d7f0" y="240.176767"/>
     <use style="fill:#1f77b4;stroke:#ffffff;stroke-width:0.48;" x="110.809414" xlink:href="#mb4db55d7f0" y="239.818487"/>
     <use style="fill:#1f77b4;stroke:#ffffff;stroke-width:0.48;" x="107.121518" xlink:href="#mb4db55d7f0" y="240.176767"/>
     <use style="fill:#1f77b4;stroke:#ffffff;stroke-width:0.48;" x="118.244931" xlink:href="#mb4db55d7f0" y="236.593969"/>
     <use style="fill:#1f77b4;stroke:#ffffff;stroke-width:0.48;" x="107.776942" xlink:href="#mb4db55d7f0" y="230.861493"/>
     <use style="fill:#1f77b4;stroke:#ffffff;stroke-width:0.48;" x="105.718253" xlink:href="#mb4db55d7f0" y="225.845576"/>
     <use style="fill:#1f77b4;stroke:#ffffff;stroke-width:0.48;" x="100.543406" xlink:href="#mb4db55d7f0" y="249.850321"/>
     <use style="fill:#1f77b4;stroke:#ffffff;stroke-width:0.48;" x="100.431971" xlink:href="#mb4db55d7f0" y="247.342363"/>
     <use style="fill:#1f77b4;stroke:#ffffff;stroke-width:0.48;" x="101.852027" xlink:href="#mb4db55d7f0" y="244.834404"/>
    </g>
   </g>
   <g id="matplotlib.axis_1">
    <g id="xtick_1">
     <g id="line2d_1">
      <path clip-path="url(#pcbcabf93a0)" d="M 97.148571 252 
L 97.148571 34.56 
" style="fill:none;stroke:#b0b0b0;stroke-linecap:square;stroke-width:0.8;"/>
     </g>
     <g id="line2d_2">
      <defs>
       <path d="M 0 0 
L 0 3.5 
" id="me227ef8711" style="stroke:#000000;stroke-width:0.8;"/>
      </defs>
      <g>
       <use style="stroke:#000000;stroke-width:0.8;" x="97.148571" xlink:href="#me227ef8711" y="252"/>
      </g>
     </g>
     <g id="text_1">
      <!-- 0.0 -->
      <g transform="translate(89.197009 266.598437)scale(0.1 -0.1)">
       <defs>
        <path d="M 2034 4250 
Q 1547 4250 1301 3770 
Q 1056 3291 1056 2328 
Q 1056 1369 1301 889 
Q 1547 409 2034 409 
Q 2525 409 2770 889 
Q 3016 1369 3016 2328 
Q 3016 3291 2770 3770 
Q 2525 4250 2034 4250 
z
M 2034 4750 
Q 2819 4750 3233 4129 
Q 3647 3509 3647 2328 
Q 3647 1150 3233 529 
Q 2819 -91 2034 -91 
Q 1250 -91 836 529 
Q 422 1150 422 2328 
Q 422 3509 836 4129 
Q 1250 4750 2034 4750 
z
" id="DejaVuSans-30" transform="scale(0.015625)"/>
        <path d="M 684 794 
L 1344 794 
L 1344 0 
L 684 0 
L 684 794 
z
" id="DejaVuSans-2e" transform="scale(0.015625)"/>
       </defs>
       <use xlink:href="#DejaVuSans-30"/>
       <use x="63.623047" xlink:href="#DejaVuSans-2e"/>
       <use x="95.410156" xlink:href="#DejaVuSans-30"/>
      </g>
     </g>
    </g>
    <g id="xtick_2">
     <g id="line2d_3">
      <path clip-path="url(#pcbcabf93a0)" d="M 128.211429 252 
L 128.211429 34.56 
" style="fill:none;stroke:#b0b0b0;stroke-linecap:square;stroke-width:0.8;"/>
     </g>
     <g id="line2d_4">
      <g>
       <use style="stroke:#000000;stroke-width:0.8;" x="128.211429" xlink:href="#me227ef8711" y="252"/>
      </g>
     </g>
     <g id="text_2">
      <!-- 0.1 -->
      <g transform="translate(120.259866 266.598437)scale(0.1 -0.1)">
       <defs>
        <path d="M 794 531 
L 1825 531 
L 1825 4091 
L 703 3866 
L 703 4441 
L 1819 4666 
L 2450 4666 
L 2450 531 
L 3481 531 
L 3481 0 
L 794 0 
L 794 531 
z
" id="DejaVuSans-31" transform="scale(0.015625)"/>
       </defs>
       <use xlink:href="#DejaVuSans-30"/>
       <use x="63.623047" xlink:href="#DejaVuSans-2e"/>
       <use x="95.410156" xlink:href="#DejaVuSans-31"/>
      </g>
     </g>
    </g>
    <g id="xtick_3">
     <g id="line2d_5">
      <path clip-path="url(#pcbcabf93a0)" d="M 159.274286 252 
L 159.274286 34.56 
" style="fill:none;stroke:#b0b0b0;stroke-linecap:square;stroke-width:0.8;"/>
     </g>
     <g id="line2d_6">
      <g>
       <use style="stroke:#000000;stroke-width:0.8;" x="159.274286" xlink:href="#me227ef8711" y="252"/>
      </g>
     </g>
     <g id="text_3">
      <!-- 0.2 -->
      <g transform="translate(151.322723 266.598437)scale(0.1 -0.1)">
       <defs>
        <path d="M 1228 531 
L 3431 531 
L 3431 0 
L 469 0 
L 469 531 
Q 828 903 1448 1529 
Q 2069 2156 2228 2338 
Q 2531 2678 2651 2914 
Q 2772 3150 2772 3378 
Q 2772 3750 2511 3984 
Q 2250 4219 1831 4219 
Q 1534 4219 1204 4116 
Q 875 4013 500 3803 
L 500 4441 
Q 881 4594 1212 4672 
Q 1544 4750 1819 4750 
Q 2544 4750 2975 4387 
Q 3406 4025 3406 3419 
Q 3406 3131 3298 2873 
Q 3191 2616 2906 2266 
Q 2828 2175 2409 1742 
Q 1991 1309 1228 531 
z
" id="DejaVuSans-32" transform="scale(0.015625)"/>
       </defs>
       <use xlink:href="#DejaVuSans-30"/>
       <use x="63.623047" xlink:href="#DejaVuSans-2e"/>
       <use x="95.410156" xlink:href="#DejaVuSans-32"/>
      </g>
     </g>
    </g>
    <g id="xtick_4">
     <g id="line2d_7">
      <path clip-path="url(#pcbcabf93a0)" d="M 190.337143 252 
L 190.337143 34.56 
" style="fill:none;stroke:#b0b0b0;stroke-linecap:square;stroke-width:0.8;"/>
     </g>
     <g id="line2d_8">
      <g>
       <use style="stroke:#000000;stroke-width:0.8;" x="190.337143" xlink:href="#me227ef8711" y="252"/>
      </g>
     </g>
     <g id="text_4">
      <!-- 0.3 -->
      <g transform="translate(182.38558 266.598437)scale(0.1 -0.1)">
       <defs>
        <path d="M 2597 2516 
Q 3050 2419 3304 2112 
Q 3559 1806 3559 1356 
Q 3559 666 3084 287 
Q 2609 -91 1734 -91 
Q 1441 -91 1130 -33 
Q 819 25 488 141 
L 488 750 
Q 750 597 1062 519 
Q 1375 441 1716 441 
Q 2309 441 2620 675 
Q 2931 909 2931 1356 
Q 2931 1769 2642 2001 
Q 2353 2234 1838 2234 
L 1294 2234 
L 1294 2753 
L 1863 2753 
Q 2328 2753 2575 2939 
Q 2822 3125 2822 3475 
Q 2822 3834 2567 4026 
Q 2313 4219 1838 4219 
Q 1578 4219 1281 4162 
Q 984 4106 628 3988 
L 628 4550 
Q 988 4650 1302 4700 
Q 1616 4750 1894 4750 
Q 2613 4750 3031 4423 
Q 3450 4097 3450 3541 
Q 3450 3153 3228 2886 
Q 3006 2619 2597 2516 
z
" id="DejaVuSans-33" transform="scale(0.015625)"/>
       </defs>
       <use xlink:href="#DejaVuSans-30"/>
       <use x="63.623047" xlink:href="#DejaVuSans-2e"/>
       <use x="95.410156" xlink:href="#DejaVuSans-33"/>
      </g>
     </g>
    </g>
    <g id="xtick_5">
     <g id="line2d_9">
      <path clip-path="url(#pcbcabf93a0)" d="M 221.4 252 
L 221.4 34.56 
" style="fill:none;stroke:#b0b0b0;stroke-linecap:square;stroke-width:0.8;"/>
     </g>
     <g id="line2d_10">
      <g>
       <use style="stroke:#000000;stroke-width:0.8;" x="221.4" xlink:href="#me227ef8711" y="252"/>
      </g>
     </g>
     <g id="text_5">
      <!-- 0.4 -->
      <g transform="translate(213.448438 266.598437)scale(0.1 -0.1)">
       <defs>
        <path d="M 2419 4116 
L 825 1625 
L 2419 1625 
L 2419 4116 
z
M 2253 4666 
L 3047 4666 
L 3047 1625 
L 3713 1625 
L 3713 1100 
L 3047 1100 
L 3047 0 
L 2419 0 
L 2419 1100 
L 313 1100 
L 313 1709 
L 2253 4666 
z
" id="DejaVuSans-34" transform="scale(0.015625)"/>
       </defs>
       <use xlink:href="#DejaVuSans-30"/>
       <use x="63.623047" xlink:href="#DejaVuSans-2e"/>
       <use x="95.410156" xlink:href="#DejaVuSans-34"/>
      </g>
     </g>
    </g>
    <g id="xtick_6">
     <g id="line2d_11">
      <path clip-path="url(#pcbcabf93a0)" d="M 252.462857 252 
L 252.462857 34.56 
" style="fill:none;stroke:#b0b0b0;stroke-linecap:square;stroke-width:0.8;"/>
     </g>
     <g id="line2d_12">
      <g>
       <use style="stroke:#000000;stroke-width:0.8;" x="252.462857" xlink:href="#me227ef8711" y="252"/>
      </g>
     </g>
     <g id="text_6">
      <!-- 0.5 -->
      <g transform="translate(244.511295 266.598437)scale(0.1 -0.1)">
       <defs>
        <path d="M 691 4666 
L 3169 4666 
L 3169 4134 
L 1269 4134 
L 1269 2991 
Q 1406 3038 1543 3061 
Q 1681 3084 1819 3084 
Q 2600 3084 3056 2656 
Q 3513 2228 3513 1497 
Q 3513 744 3044 326 
Q 2575 -91 1722 -91 
Q 1428 -91 1123 -41 
Q 819 9 494 109 
L 494 744 
Q 775 591 1075 516 
Q 1375 441 1709 441 
Q 2250 441 2565 725 
Q 2881 1009 2881 1497 
Q 2881 1984 2565 2268 
Q 2250 2553 1709 2553 
Q 1456 2553 1204 2497 
Q 953 2441 691 2322 
L 691 4666 
z
" id="DejaVuSans-35" transform="scale(0.015625)"/>
       </defs>
       <use xlink:href="#DejaVuSans-30"/>
       <use x="63.623047" xlink:href="#DejaVuSans-2e"/>
       <use x="95.410156" xlink:href="#DejaVuSans-35"/>
      </g>
     </g>
    </g>
    <g id="xtick_7">
     <g id="line2d_13">
      <path clip-path="url(#pcbcabf93a0)" d="M 283.525714 252 
L 283.525714 34.56 
" style="fill:none;stroke:#b0b0b0;stroke-linecap:square;stroke-width:0.8;"/>
     </g>
     <g id="line2d_14">
      <g>
       <use style="stroke:#000000;stroke-width:0.8;" x="283.525714" xlink:href="#me227ef8711" y="252"/>
      </g>
     </g>
     <g id="text_7">
      <!-- 0.6 -->
      <g transform="translate(275.574152 266.598437)scale(0.1 -0.1)">
       <defs>
        <path d="M 2113 2584 
Q 1688 2584 1439 2293 
Q 1191 2003 1191 1497 
Q 1191 994 1439 701 
Q 1688 409 2113 409 
Q 2538 409 2786 701 
Q 3034 994 3034 1497 
Q 3034 2003 2786 2293 
Q 2538 2584 2113 2584 
z
M 3366 4563 
L 3366 3988 
Q 3128 4100 2886 4159 
Q 2644 4219 2406 4219 
Q 1781 4219 1451 3797 
Q 1122 3375 1075 2522 
Q 1259 2794 1537 2939 
Q 1816 3084 2150 3084 
Q 2853 3084 3261 2657 
Q 3669 2231 3669 1497 
Q 3669 778 3244 343 
Q 2819 -91 2113 -91 
Q 1303 -91 875 529 
Q 447 1150 447 2328 
Q 447 3434 972 4092 
Q 1497 4750 2381 4750 
Q 2619 4750 2861 4703 
Q 3103 4656 3366 4563 
z
" id="DejaVuSans-36" transform="scale(0.015625)"/>
       </defs>
       <use xlink:href="#DejaVuSans-30"/>
       <use x="63.623047" xlink:href="#DejaVuSans-2e"/>
       <use x="95.410156" xlink:href="#DejaVuSans-36"/>
      </g>
     </g>
    </g>
    <g id="xtick_8">
     <g id="line2d_15">
      <path clip-path="url(#pcbcabf93a0)" d="M 314.588571 252 
L 314.588571 34.56 
" style="fill:none;stroke:#b0b0b0;stroke-linecap:square;stroke-width:0.8;"/>
     </g>
     <g id="line2d_16">
      <g>
       <use style="stroke:#000000;stroke-width:0.8;" x="314.588571" xlink:href="#me227ef8711" y="252"/>
      </g>
     </g>
     <g id="text_8">
      <!-- 0.7 -->
      <g transform="translate(306.637009 266.598437)scale(0.1 -0.1)">
       <defs>
        <path d="M 525 4666 
L 3525 4666 
L 3525 4397 
L 1831 0 
L 1172 0 
L 2766 4134 
L 525 4134 
L 525 4666 
z
" id="DejaVuSans-37" transform="scale(0.015625)"/>
       </defs>
       <use xlink:href="#DejaVuSans-30"/>
       <use x="63.623047" xlink:href="#DejaVuSans-2e"/>
       <use x="95.410156" xlink:href="#DejaVuSans-37"/>
      </g>
     </g>
    </g>
    <g id="xtick_9">
     <g id="line2d_17">
      <path clip-path="url(#pcbcabf93a0)" d="M 345.651429 252 
L 345.651429 34.56 
" style="fill:none;stroke:#b0b0b0;stroke-linecap:square;stroke-width:0.8;"/>
     </g>
     <g id="line2d_18">
      <g>
       <use style="stroke:#000000;stroke-width:0.8;" x="345.651429" xlink:href="#me227ef8711" y="252"/>
      </g>
     </g>
     <g id="text_9">
      <!-- 0.8 -->
      <g transform="translate(337.699866 266.598437)scale(0.1 -0.1)">
       <defs>
        <path d="M 2034 2216 
Q 1584 2216 1326 1975 
Q 1069 1734 1069 1313 
Q 1069 891 1326 650 
Q 1584 409 2034 409 
Q 2484 409 2743 651 
Q 3003 894 3003 1313 
Q 3003 1734 2745 1975 
Q 2488 2216 2034 2216 
z
M 1403 2484 
Q 997 2584 770 2862 
Q 544 3141 544 3541 
Q 544 4100 942 4425 
Q 1341 4750 2034 4750 
Q 2731 4750 3128 4425 
Q 3525 4100 3525 3541 
Q 3525 3141 3298 2862 
Q 3072 2584 2669 2484 
Q 3125 2378 3379 2068 
Q 3634 1759 3634 1313 
Q 3634 634 3220 271 
Q 2806 -91 2034 -91 
Q 1263 -91 848 271 
Q 434 634 434 1313 
Q 434 1759 690 2068 
Q 947 2378 1403 2484 
z
M 1172 3481 
Q 1172 3119 1398 2916 
Q 1625 2713 2034 2713 
Q 2441 2713 2670 2916 
Q 2900 3119 2900 3481 
Q 2900 3844 2670 4047 
Q 2441 4250 2034 4250 
Q 1625 4250 1398 4047 
Q 1172 3844 1172 3481 
z
" id="DejaVuSans-38" transform="scale(0.015625)"/>
       </defs>
       <use xlink:href="#DejaVuSans-30"/>
       <use x="63.623047" xlink:href="#DejaVuSans-2e"/>
       <use x="95.410156" xlink:href="#DejaVuSans-38"/>
      </g>
     </g>
    </g>
    <g id="text_10">
     <!-- Electoral_Proportion -->
     <g transform="translate(171.201562 280.276563)scale(0.1 -0.1)">
      <defs>
       <path d="M 628 4666 
L 3578 4666 
L 3578 4134 
L 1259 4134 
L 1259 2753 
L 3481 2753 
L 3481 2222 
L 1259 2222 
L 1259 531 
L 3634 531 
L 3634 0 
L 628 0 
L 628 4666 
z
" id="DejaVuSans-45" transform="scale(0.015625)"/>
       <path d="M 603 4863 
L 1178 4863 
L 1178 0 
L 603 0 
L 603 4863 
z
" id="DejaVuSans-6c" transform="scale(0.015625)"/>
       <path d="M 3597 1894 
L 3597 1613 
L 953 1613 
Q 991 1019 1311 708 
Q 1631 397 2203 397 
Q 2534 397 2845 478 
Q 3156 559 3463 722 
L 3463 178 
Q 3153 47 2828 -22 
Q 2503 -91 2169 -91 
Q 1331 -91 842 396 
Q 353 884 353 1716 
Q 353 2575 817 3079 
Q 1281 3584 2069 3584 
Q 2775 3584 3186 3129 
Q 3597 2675 3597 1894 
z
M 3022 2063 
Q 3016 2534 2758 2815 
Q 2500 3097 2075 3097 
Q 1594 3097 1305 2825 
Q 1016 2553 972 2059 
L 3022 2063 
z
" id="DejaVuSans-65" transform="scale(0.015625)"/>
       <path d="M 3122 3366 
L 3122 2828 
Q 2878 2963 2633 3030 
Q 2388 3097 2138 3097 
Q 1578 3097 1268 2742 
Q 959 2388 959 1747 
Q 959 1106 1268 751 
Q 1578 397 2138 397 
Q 2388 397 2633 464 
Q 2878 531 3122 666 
L 3122 134 
Q 2881 22 2623 -34 
Q 2366 -91 2075 -91 
Q 1284 -91 818 406 
Q 353 903 353 1747 
Q 353 2603 823 3093 
Q 1294 3584 2113 3584 
Q 2378 3584 2631 3529 
Q 2884 3475 3122 3366 
z
" id="DejaVuSans-63" transform="scale(0.015625)"/>
       <path d="M 1172 4494 
L 1172 3500 
L 2356 3500 
L 2356 3053 
L 1172 3053 
L 1172 1153 
Q 1172 725 1289 603 
Q 1406 481 1766 481 
L 2356 481 
L 2356 0 
L 1766 0 
Q 1100 0 847 248 
Q 594 497 594 1153 
L 594 3053 
L 172 3053 
L 172 3500 
L 594 3500 
L 594 4494 
L 1172 4494 
z
" id="DejaVuSans-74" transform="scale(0.015625)"/>
       <path d="M 1959 3097 
Q 1497 3097 1228 2736 
Q 959 2375 959 1747 
Q 959 1119 1226 758 
Q 1494 397 1959 397 
Q 2419 397 2687 759 
Q 2956 1122 2956 1747 
Q 2956 2369 2687 2733 
Q 2419 3097 1959 3097 
z
M 1959 3584 
Q 2709 3584 3137 3096 
Q 3566 2609 3566 1747 
Q 3566 888 3137 398 
Q 2709 -91 1959 -91 
Q 1206 -91 779 398 
Q 353 888 353 1747 
Q 353 2609 779 3096 
Q 1206 3584 1959 3584 
z
" id="DejaVuSans-6f" transform="scale(0.015625)"/>
       <path d="M 2631 2963 
Q 2534 3019 2420 3045 
Q 2306 3072 2169 3072 
Q 1681 3072 1420 2755 
Q 1159 2438 1159 1844 
L 1159 0 
L 581 0 
L 581 3500 
L 1159 3500 
L 1159 2956 
Q 1341 3275 1631 3429 
Q 1922 3584 2338 3584 
Q 2397 3584 2469 3576 
Q 2541 3569 2628 3553 
L 2631 2963 
z
" id="DejaVuSans-72" transform="scale(0.015625)"/>
       <path d="M 2194 1759 
Q 1497 1759 1228 1600 
Q 959 1441 959 1056 
Q 959 750 1161 570 
Q 1363 391 1709 391 
Q 2188 391 2477 730 
Q 2766 1069 2766 1631 
L 2766 1759 
L 2194 1759 
z
M 3341 1997 
L 3341 0 
L 2766 0 
L 2766 531 
Q 2569 213 2275 61 
Q 1981 -91 1556 -91 
Q 1019 -91 701 211 
Q 384 513 384 1019 
Q 384 1609 779 1909 
Q 1175 2209 1959 2209 
L 2766 2209 
L 2766 2266 
Q 2766 2663 2505 2880 
Q 2244 3097 1772 3097 
Q 1472 3097 1187 3025 
Q 903 2953 641 2809 
L 641 3341 
Q 956 3463 1253 3523 
Q 1550 3584 1831 3584 
Q 2591 3584 2966 3190 
Q 3341 2797 3341 1997 
z
" id="DejaVuSans-61" transform="scale(0.015625)"/>
       <path d="M 3263 -1063 
L 3263 -1509 
L -63 -1509 
L -63 -1063 
L 3263 -1063 
z
" id="DejaVuSans-5f" transform="scale(0.015625)"/>
       <path d="M 1259 4147 
L 1259 2394 
L 2053 2394 
Q 2494 2394 2734 2622 
Q 2975 2850 2975 3272 
Q 2975 3691 2734 3919 
Q 2494 4147 2053 4147 
L 1259 4147 
z
M 628 4666 
L 2053 4666 
Q 2838 4666 3239 4311 
Q 3641 3956 3641 3272 
Q 3641 2581 3239 2228 
Q 2838 1875 2053 1875 
L 1259 1875 
L 1259 0 
L 628 0 
L 628 4666 
z
" id="DejaVuSans-50" transform="scale(0.015625)"/>
       <path d="M 1159 525 
L 1159 -1331 
L 581 -1331 
L 581 3500 
L 1159 3500 
L 1159 2969 
Q 1341 3281 1617 3432 
Q 1894 3584 2278 3584 
Q 2916 3584 3314 3078 
Q 3713 2572 3713 1747 
Q 3713 922 3314 415 
Q 2916 -91 2278 -91 
Q 1894 -91 1617 61 
Q 1341 213 1159 525 
z
M 3116 1747 
Q 3116 2381 2855 2742 
Q 2594 3103 2138 3103 
Q 1681 3103 1420 2742 
Q 1159 2381 1159 1747 
Q 1159 1113 1420 752 
Q 1681 391 2138 391 
Q 2594 391 2855 752 
Q 3116 1113 3116 1747 
z
" id="DejaVuSans-70" transform="scale(0.015625)"/>
       <path d="M 603 3500 
L 1178 3500 
L 1178 0 
L 603 0 
L 603 3500 
z
M 603 4863 
L 1178 4863 
L 1178 4134 
L 603 4134 
L 603 4863 
z
" id="DejaVuSans-69" transform="scale(0.015625)"/>
       <path d="M 3513 2113 
L 3513 0 
L 2938 0 
L 2938 2094 
Q 2938 2591 2744 2837 
Q 2550 3084 2163 3084 
Q 1697 3084 1428 2787 
Q 1159 2491 1159 1978 
L 1159 0 
L 581 0 
L 581 3500 
L 1159 3500 
L 1159 2956 
Q 1366 3272 1645 3428 
Q 1925 3584 2291 3584 
Q 2894 3584 3203 3211 
Q 3513 2838 3513 2113 
z
" id="DejaVuSans-6e" transform="scale(0.015625)"/>
      </defs>
      <use xlink:href="#DejaVuSans-45"/>
      <use x="63.183594" xlink:href="#DejaVuSans-6c"/>
      <use x="90.966797" xlink:href="#DejaVuSans-65"/>
      <use x="152.490234" xlink:href="#DejaVuSans-63"/>
      <use x="207.470703" xlink:href="#DejaVuSans-74"/>
      <use x="246.679688" xlink:href="#DejaVuSans-6f"/>
      <use x="307.861328" xlink:href="#DejaVuSans-72"/>
      <use x="348.974609" xlink:href="#DejaVuSans-61"/>
      <use x="410.253906" xlink:href="#DejaVuSans-6c"/>
      <use x="438.037109" xlink:href="#DejaVuSans-5f"/>
      <use x="488.037109" xlink:href="#DejaVuSans-50"/>
      <use x="546.589844" xlink:href="#DejaVuSans-72"/>
      <use x="585.453125" xlink:href="#DejaVuSans-6f"/>
      <use x="646.634766" xlink:href="#DejaVuSans-70"/>
      <use x="710.111328" xlink:href="#DejaVuSans-6f"/>
      <use x="771.292969" xlink:href="#DejaVuSans-72"/>
      <use x="812.40625" xlink:href="#DejaVuSans-74"/>
      <use x="851.615234" xlink:href="#DejaVuSans-69"/>
      <use x="879.398438" xlink:href="#DejaVuSans-6f"/>
      <use x="940.580078" xlink:href="#DejaVuSans-6e"/>
     </g>
    </g>
   </g>
   <g id="matplotlib.axis_2">
    <g id="ytick_1">
     <g id="line2d_19">
      <path clip-path="url(#pcbcabf93a0)" d="M 97.148571 252 
L 345.651429 252 
" style="fill:none;stroke:#b0b0b0;stroke-linecap:square;stroke-width:0.8;"/>
     </g>
     <g id="line2d_20">
      <defs>
       <path d="M 0 0 
L -3.5 0 
" id="mff6673c981" style="stroke:#000000;stroke-width:0.8;"/>
      </defs>
      <g>
       <use style="stroke:#000000;stroke-width:0.8;" x="97.148571" xlink:href="#mff6673c981" y="252"/>
      </g>
     </g>
     <g id="text_11">
      <!-- 0.0 -->
      <g transform="translate(74.245446 255.799219)scale(0.1 -0.1)">
       <use xlink:href="#DejaVuSans-30"/>
       <use x="63.623047" xlink:href="#DejaVuSans-2e"/>
       <use x="95.410156" xlink:href="#DejaVuSans-30"/>
      </g>
     </g>
    </g>
    <g id="ytick_2">
     <g id="line2d_21">
      <path clip-path="url(#pcbcabf93a0)" d="M 97.148571 220.937143 
L 345.651429 220.937143 
" style="fill:none;stroke:#b0b0b0;stroke-linecap:square;stroke-width:0.8;"/>
     </g>
     <g id="line2d_22">
      <g>
       <use style="stroke:#000000;stroke-width:0.8;" x="97.148571" xlink:href="#mff6673c981" y="220.937143"/>
      </g>
     </g>
     <g id="text_12">
      <!-- 0.1 -->
      <g transform="translate(74.245446 224.736362)scale(0.1 -0.1)">
       <use xlink:href="#DejaVuSans-30"/>
       <use x="63.623047" xlink:href="#DejaVuSans-2e"/>
       <use x="95.410156" xlink:href="#DejaVuSans-31"/>
      </g>
     </g>
    </g>
    <g id="ytick_3">
     <g id="line2d_23">
      <path clip-path="url(#pcbcabf93a0)" d="M 97.148571 189.874286 
L 345.651429 189.874286 
" style="fill:none;stroke:#b0b0b0;stroke-linecap:square;stroke-width:0.8;"/>
     </g>
     <g id="line2d_24">
      <g>
       <use style="stroke:#000000;stroke-width:0.8;" x="97.148571" xlink:href="#mff6673c981" y="189.874286"/>
      </g>
     </g>
     <g id="text_13">
      <!-- 0.2 -->
      <g transform="translate(74.245446 193.673504)scale(0.1 -0.1)">
       <use xlink:href="#DejaVuSans-30"/>
       <use x="63.623047" xlink:href="#DejaVuSans-2e"/>
       <use x="95.410156" xlink:href="#DejaVuSans-32"/>
      </g>
     </g>
    </g>
    <g id="ytick_4">
     <g id="line2d_25">
      <path clip-path="url(#pcbcabf93a0)" d="M 97.148571 158.811429 
L 345.651429 158.811429 
" style="fill:none;stroke:#b0b0b0;stroke-linecap:square;stroke-width:0.8;"/>
     </g>
     <g id="line2d_26">
      <g>
       <use style="stroke:#000000;stroke-width:0.8;" x="97.148571" xlink:href="#mff6673c981" y="158.811429"/>
      </g>
     </g>
     <g id="text_14">
      <!-- 0.3 -->
      <g transform="translate(74.245446 162.610647)scale(0.1 -0.1)">
       <use xlink:href="#DejaVuSans-30"/>
       <use x="63.623047" xlink:href="#DejaVuSans-2e"/>
       <use x="95.410156" xlink:href="#DejaVuSans-33"/>
      </g>
     </g>
    </g>
    <g id="ytick_5">
     <g id="line2d_27">
      <path clip-path="url(#pcbcabf93a0)" d="M 97.148571 127.748571 
L 345.651429 127.748571 
" style="fill:none;stroke:#b0b0b0;stroke-linecap:square;stroke-width:0.8;"/>
     </g>
     <g id="line2d_28">
      <g>
       <use style="stroke:#000000;stroke-width:0.8;" x="97.148571" xlink:href="#mff6673c981" y="127.748571"/>
      </g>
     </g>
     <g id="text_15">
      <!-- 0.4 -->
      <g transform="translate(74.245446 131.54779)scale(0.1 -0.1)">
       <use xlink:href="#DejaVuSans-30"/>
       <use x="63.623047" xlink:href="#DejaVuSans-2e"/>
       <use x="95.410156" xlink:href="#DejaVuSans-34"/>
      </g>
     </g>
    </g>
    <g id="ytick_6">
     <g id="line2d_29">
      <path clip-path="url(#pcbcabf93a0)" d="M 97.148571 96.685714 
L 345.651429 96.685714 
" style="fill:none;stroke:#b0b0b0;stroke-linecap:square;stroke-width:0.8;"/>
     </g>
     <g id="line2d_30">
      <g>
       <use style="stroke:#000000;stroke-width:0.8;" x="97.148571" xlink:href="#mff6673c981" y="96.685714"/>
      </g>
     </g>
     <g id="text_16">
      <!-- 0.5 -->
      <g transform="translate(74.245446 100.484933)scale(0.1 -0.1)">
       <use xlink:href="#DejaVuSans-30"/>
       <use x="63.623047" xlink:href="#DejaVuSans-2e"/>
       <use x="95.410156" xlink:href="#DejaVuSans-35"/>
      </g>
     </g>
    </g>
    <g id="ytick_7">
     <g id="line2d_31">
      <path clip-path="url(#pcbcabf93a0)" d="M 97.148571 65.622857 
L 345.651429 65.622857 
" style="fill:none;stroke:#b0b0b0;stroke-linecap:square;stroke-width:0.8;"/>
     </g>
     <g id="line2d_32">
      <g>
       <use style="stroke:#000000;stroke-width:0.8;" x="97.148571" xlink:href="#mff6673c981" y="65.622857"/>
      </g>
     </g>
     <g id="text_17">
      <!-- 0.6 -->
      <g transform="translate(74.245446 69.422076)scale(0.1 -0.1)">
       <use xlink:href="#DejaVuSans-30"/>
       <use x="63.623047" xlink:href="#DejaVuSans-2e"/>
       <use x="95.410156" xlink:href="#DejaVuSans-36"/>
      </g>
     </g>
    </g>
    <g id="ytick_8">
     <g id="line2d_33">
      <path clip-path="url(#pcbcabf93a0)" d="M 97.148571 34.56 
L 345.651429 34.56 
" style="fill:none;stroke:#b0b0b0;stroke-linecap:square;stroke-width:0.8;"/>
     </g>
     <g id="line2d_34">
      <g>
       <use style="stroke:#000000;stroke-width:0.8;" x="97.148571" xlink:href="#mff6673c981" y="34.56"/>
      </g>
     </g>
     <g id="text_18">
      <!-- 0.7 -->
      <g transform="translate(74.245446 38.359219)scale(0.1 -0.1)">
       <use xlink:href="#DejaVuSans-30"/>
       <use x="63.623047" xlink:href="#DejaVuSans-2e"/>
       <use x="95.410156" xlink:href="#DejaVuSans-37"/>
      </g>
     </g>
    </g>
    <g id="text_19">
     <!-- Poll_Proportion -->
     <g transform="translate(67.887634 180.247187)rotate(-90)scale(0.1 -0.1)">
      <use xlink:href="#DejaVuSans-50"/>
      <use x="56.677734" xlink:href="#DejaVuSans-6f"/>
      <use x="117.859375" xlink:href="#DejaVuSans-6c"/>
      <use x="145.642578" xlink:href="#DejaVuSans-6c"/>
      <use x="173.425781" xlink:href="#DejaVuSans-5f"/>
      <use x="223.425781" xlink:href="#DejaVuSans-50"/>
      <use x="281.978516" xlink:href="#DejaVuSans-72"/>
      <use x="320.841797" xlink:href="#DejaVuSans-6f"/>
      <use x="382.023438" xlink:href="#DejaVuSans-70"/>
      <use x="445.5" xlink:href="#DejaVuSans-6f"/>
      <use x="506.681641" xlink:href="#DejaVuSans-72"/>
      <use x="547.794922" xlink:href="#DejaVuSans-74"/>
      <use x="587.003906" xlink:href="#DejaVuSans-69"/>
      <use x="614.787109" xlink:href="#DejaVuSans-6f"/>
      <use x="675.96875" xlink:href="#DejaVuSans-6e"/>
     </g>
    </g>
   </g>
   <g id="line2d_35">
    <path clip-path="url(#pcbcabf93a0)" d="M 97.148571 252 
L 350.148571 -1 
" style="fill:none;stroke:#4c4c4c;stroke-dasharray:5.55,2.4;stroke-dashoffset:0;stroke-width:1.5;"/>
   </g>
   <g id="patch_3">
    <path d="M 97.148571 252 
L 97.148571 34.56 
" style="fill:none;stroke:#000000;stroke-linecap:square;stroke-linejoin:miter;stroke-width:0.8;"/>
   </g>
   <g id="patch_4">
    <path d="M 345.651429 252 
L 345.651429 34.56 
" style="fill:none;stroke:#000000;stroke-linecap:square;stroke-linejoin:miter;stroke-width:0.8;"/>
   </g>
   <g id="patch_5">
    <path d="M 97.148571 252 
L 345.651429 252 
" style="fill:none;stroke:#000000;stroke-linecap:square;stroke-linejoin:miter;stroke-width:0.8;"/>
   </g>
   <g id="patch_6">
    <path d="M 97.148571 34.56 
L 345.651429 34.56 
" style="fill:none;stroke:#000000;stroke-linecap:square;stroke-linejoin:miter;stroke-width:0.8;"/>
   </g>
  </g>
 </g>
 <defs>
  <clipPath id="pcbcabf93a0">
   <rect height="217.44" width="248.502857" x="97.148571" y="34.56"/>
  </clipPath>
 </defs>
</svg>
