<?xml version="1.0" encoding="utf-8" standalone="no"?>
<!DOCTYPE svg PUBLIC "-//W3C//DTD SVG 1.1//EN"
  "http://www.w3.org/Graphics/SVG/1.1/DTD/svg11.dtd">
<svg height="288pt" version="1.1" viewBox="0 0 432 288" width="432pt" xmlns="http://www.w3.org/2000/svg" xmlns:xlink="http://www.w3.org/1999/xlink">
 <metadata>
  <rdf:RDF xmlns:cc="http://creativecommons.org/ns#" xmlns:dc="http://purl.org/dc/elements/1.1/" xmlns:rdf="http://www.w3.org/1999/02/22-rdf-syntax-ns#">
   <cc:Work>
    <dc:type rdf:resource="http://purl.org/dc/dcmitype/StillImage"/>
    <dc:date>2021-09-20T17:59:42.884608</dc:date>
    <dc:format>image/svg+xml</dc:format>
    <dc:creator>
     <cc:Agent>
      <dc:title>Matplotlib v3.4.3, https://matplotlib.org/</dc:title>
     </cc:Agent>
    </dc:creator>
   </cc:Work>
  </rdf:RDF>
 </metadata>
 <defs>
  <style type="text/css">*{stroke-linecap:butt;stroke-linejoin:round;}</style>
 </defs>
 <g id="figure_1">
  <g id="patch_1">
   <path d="M 0 288 
L 432 288 
L 432 0 
L 0 0 
z
" style="fill:none;"/>
  </g>
  <g id="axes_1">
   <g id="patch_2">
    <path d="M 112.68 252 
L 330.12 252 
L 330.12 34.56 
L 112.68 34.56 
z
" style="fill:#ffffff;"/>
   </g>
   <g id="PathCollection_1">
    <defs>
     <path d="M 0 3 
C 0.795609 3 1.55874 2.683901 2.12132 2.12132 
C 2.683901 1.55874 3 0.795609 3 0 
C 3 -0.795609 2.683901 -1.55874 2.12132 -2.12132 
C 1.55874 -2.683901 0.795609 -3 0 -3 
C -0.795609 -3 -1.55874 -2.683901 -2.12132 -2.12132 
C -2.683901 -1.55874 -3 -0.795609 -3 0 
C -3 0.795609 -2.683901 1.55874 -2.12132 2.12132 
C -1.55874 2.683901 -0.795609 3 0 3 
z
" id="m7819014bca" style="stroke:#ffffff;stroke-width:0.48;"/>
    </defs>
    <g clip-path="url(#p8e563b97aa)">
     <use style="fill:#1f77b4;stroke:#ffffff;stroke-width:0.48;" x="394.727519" xlink:href="#m7819014bca" y="-1"/>
     <use style="fill:#1f77b4;stroke:#ffffff;stroke-width:0.48;" x="401.721253" xlink:href="#m7819014bca" y="54.707266"/>
     <use style="fill:#1f77b4;stroke:#ffffff;stroke-width:0.48;" x="267.268996" xlink:href="#m7819014bca" y="-0.46782"/>
     <use style="fill:#1f77b4;stroke:#ffffff;stroke-width:0.48;" x="268.134653" xlink:href="#m7819014bca" y="-1"/>
     <use style="fill:#1f77b4;stroke:#ffffff;stroke-width:0.48;" x="334.588169" xlink:href="#m7819014bca" y="-1"/>
     <use style="fill:#1f77b4;stroke:#ffffff;stroke-width:0.48;" x="192.210493" xlink:href="#m7819014bca" y="90.654671"/>
     <use style="fill:#1f77b4;stroke:#ffffff;stroke-width:0.48;" x="244.752225" xlink:href="#m7819014bca" y="111.554325"/>
     <use style="fill:#1f77b4;stroke:#ffffff;stroke-width:0.48;" x="386.781155" xlink:href="#m7819014bca" y="32.13564"/>
     <use style="fill:#1f77b4;stroke:#ffffff;stroke-width:0.48;" x="351.776127" xlink:href="#m7819014bca" y="48.855363"/>
     <use style="fill:#1f77b4;stroke:#ffffff;stroke-width:0.48;" x="408.803104" xlink:href="#m7819014bca" y="-1"/>
     <use style="fill:#1f77b4;stroke:#ffffff;stroke-width:0.48;" x="405.705305" xlink:href="#m7819014bca" y="-1"/>
     <use style="fill:#1f77b4;stroke:#ffffff;stroke-width:0.48;" x="211.014947" xlink:href="#m7819014bca" y="166.729412"/>
     <use style="fill:#1f77b4;stroke:#ffffff;stroke-width:0.48;" x="206.700295" xlink:href="#m7819014bca" y="104.866436"/>
     <use style="fill:#1f77b4;stroke:#ffffff;stroke-width:0.48;" x="139.237276" xlink:href="#m7819014bca" y="219.39654"/>
     <use style="fill:#1f77b4;stroke:#ffffff;stroke-width:0.48;" x="383.983978" xlink:href="#m7819014bca" y="109.046367"/>
     <use style="fill:#1f77b4;stroke:#ffffff;stroke-width:0.48;" x="330.528027" xlink:href="#m7819014bca" y="-1"/>
     <use style="fill:#1f77b4;stroke:#ffffff;stroke-width:0.48;" x="310.517434" xlink:href="#m7819014bca" y="-1"/>
     <use style="fill:#1f77b4;stroke:#ffffff;stroke-width:0.48;" x="221.814879" xlink:href="#m7819014bca" y="141.649827"/>
     <use style="fill:#1f77b4;stroke:#ffffff;stroke-width:0.48;" x="284.714872" xlink:href="#m7819014bca" y="102.358478"/>
     <use style="fill:#1f77b4;stroke:#ffffff;stroke-width:0.48;" x="251.989384" xlink:href="#m7819014bca" y="155.025606"/>
     <use style="fill:#1f77b4;stroke:#ffffff;stroke-width:0.48;" x="262.411869" xlink:href="#m7819014bca" y="151.681661"/>
     <use style="fill:#1f77b4;stroke:#ffffff;stroke-width:0.48;" x="187.444298" xlink:href="#m7819014bca" y="108.210381"/>
     <use style="fill:#1f77b4;stroke:#ffffff;stroke-width:0.48;" x="192.504698" xlink:href="#m7819014bca" y="143.321799"/>
     <use style="fill:#1f77b4;stroke:#ffffff;stroke-width:0.48;" x="142.975366" xlink:href="#m7819014bca" y="194.316955"/>
     <use style="fill:#1f77b4;stroke:#ffffff;stroke-width:0.48;" x="166.237054" xlink:href="#m7819014bca" y="198.496886"/>
     <use style="fill:#1f77b4;stroke:#ffffff;stroke-width:0.48;" x="218.189545" xlink:href="#m7819014bca" y="175.92526"/>
     <use style="fill:#1f77b4;stroke:#ffffff;stroke-width:0.48;" x="204.487787" xlink:href="#m7819014bca" y="179.269204"/>
     <use style="fill:#1f77b4;stroke:#ffffff;stroke-width:0.48;" x="136.606064" xlink:href="#m7819014bca" y="223.576471"/>
     <use style="fill:#1f77b4;stroke:#ffffff;stroke-width:0.48;" x="156.110955" xlink:href="#m7819014bca" y="217.724567"/>
     <use style="fill:#1f77b4;stroke:#ffffff;stroke-width:0.48;" x="226.81386" xlink:href="#m7819014bca" y="190.137024"/>
     <use style="fill:#1f77b4;stroke:#ffffff;stroke-width:0.48;" x="220.230374" xlink:href="#m7819014bca" y="179.269204"/>
     <use style="fill:#1f77b4;stroke:#ffffff;stroke-width:0.48;" x="137.989064" xlink:href="#m7819014bca" y="180.941176"/>
     <use style="fill:#1f77b4;stroke:#ffffff;stroke-width:0.48;" x="147.764216" xlink:href="#m7819014bca" y="203.512803"/>
     <use style="fill:#1f77b4;stroke:#ffffff;stroke-width:0.48;" x="167.137749" xlink:href="#m7819014bca" y="172.581315"/>
     <use style="fill:#1f77b4;stroke:#ffffff;stroke-width:0.48;" x="152.417967" xlink:href="#m7819014bca" y="198.496886"/>
     <use style="fill:#1f77b4;stroke:#ffffff;stroke-width:0.48;" x="265.341443" xlink:href="#m7819014bca" y="144.157785"/>
     <use style="fill:#1f77b4;stroke:#ffffff;stroke-width:0.48;" x="195.689089" xlink:href="#m7819014bca" y="192.644983"/>
     <use style="fill:#1f77b4;stroke:#ffffff;stroke-width:0.48;" x="148.396272" xlink:href="#m7819014bca" y="178.433218"/>
     <use style="fill:#1f77b4;stroke:#ffffff;stroke-width:0.48;" x="122.462947" xlink:href="#m7819014bca" y="237.788235"/>
     <use style="fill:#1f77b4;stroke:#ffffff;stroke-width:0.48;" x="361.617583" xlink:href="#m7819014bca" y="91.490657"/>
     <use style="fill:#1f77b4;stroke:#ffffff;stroke-width:0.48;" x="115.824485" xlink:href="#m7819014bca" y="250.328028"/>
     <use style="fill:#1f77b4;stroke:#ffffff;stroke-width:0.48;" x="142.231385" xlink:href="#m7819014bca" y="224.412457"/>
     <use style="fill:#1f77b4;stroke:#ffffff;stroke-width:0.48;" x="120.087799" xlink:href="#m7819014bca" y="247.820069"/>
     <use style="fill:#1f77b4;stroke:#ffffff;stroke-width:0.48;" x="216.968456" xlink:href="#m7819014bca" y="90.654671"/>
     <use style="fill:#1f77b4;stroke:#ffffff;stroke-width:0.48;" x="124.861373" xlink:href="#m7819014bca" y="229.428374"/>
     <use style="fill:#1f77b4;stroke:#ffffff;stroke-width:0.48;" x="141.432638" xlink:href="#m7819014bca" y="208.52872"/>
     <use style="fill:#1f77b4;stroke:#ffffff;stroke-width:0.48;" x="122.04653" xlink:href="#m7819014bca" y="238.624221"/>
     <use style="fill:#1f77b4;stroke:#ffffff;stroke-width:0.48;" x="229.815348" xlink:href="#m7819014bca" y="194.316955"/>
     <use style="fill:#1f77b4;stroke:#ffffff;stroke-width:0.48;" x="194.265871" xlink:href="#m7819014bca" y="165.893426"/>
     <use style="fill:#1f77b4;stroke:#ffffff;stroke-width:0.48;" x="195.128532" xlink:href="#m7819014bca" y="139.141869"/>
     <use style="fill:#1f77b4;stroke:#ffffff;stroke-width:0.48;" x="212.161108" xlink:href="#m7819014bca" y="211.872664"/>
     <use style="fill:#1f77b4;stroke:#ffffff;stroke-width:0.48;" x="198.172004" xlink:href="#m7819014bca" y="185.957093"/>
     <use style="fill:#1f77b4;stroke:#ffffff;stroke-width:0.48;" x="216.748141" xlink:href="#m7819014bca" y="162.549481"/>
     <use style="fill:#1f77b4;stroke:#ffffff;stroke-width:0.48;" x="167.367522" xlink:href="#m7819014bca" y="211.036678"/>
     <use style="fill:#1f77b4;stroke:#ffffff;stroke-width:0.48;" x="162.084313" xlink:href="#m7819014bca" y="153.353633"/>
     <use style="fill:#1f77b4;stroke:#ffffff;stroke-width:0.48;" x="163.177161" xlink:href="#m7819014bca" y="141.649827"/>
     <use style="fill:#1f77b4;stroke:#ffffff;stroke-width:0.48;" x="148.223657" xlink:href="#m7819014bca" y="170.909343"/>
     <use style="fill:#1f77b4;stroke:#ffffff;stroke-width:0.48;" x="168.918564" xlink:href="#m7819014bca" y="175.089273"/>
     <use style="fill:#1f77b4;stroke:#ffffff;stroke-width:0.48;" x="235.535551" xlink:href="#m7819014bca" y="145.829758"/>
     <use style="fill:#1f77b4;stroke:#ffffff;stroke-width:0.48;" x="221.250788" xlink:href="#m7819014bca" y="160.041522"/>
     <use style="fill:#1f77b4;stroke:#ffffff;stroke-width:0.48;" x="156.666836" xlink:href="#m7819014bca" y="171.745329"/>
     <use style="fill:#1f77b4;stroke:#ffffff;stroke-width:0.48;" x="188.51366" xlink:href="#m7819014bca" y="188.465052"/>
     <use style="fill:#1f77b4;stroke:#ffffff;stroke-width:0.48;" x="263.925603" xlink:href="#m7819014bca" y="138.305882"/>
     <use style="fill:#1f77b4;stroke:#ffffff;stroke-width:0.48;" x="243.205339" xlink:href="#m7819014bca" y="140.813841"/>
     <use style="fill:#1f77b4;stroke:#ffffff;stroke-width:0.48;" x="346.4686" xlink:href="#m7819014bca" y="53.035294"/>
     <use style="fill:#1f77b4;stroke:#ffffff;stroke-width:0.48;" x="149.844536" xlink:href="#m7819014bca" y="206.020761"/>
     <use style="fill:#1f77b4;stroke:#ffffff;stroke-width:0.48;" x="153.098451" xlink:href="#m7819014bca" y="167.565398"/>
     <use style="fill:#1f77b4;stroke:#ffffff;stroke-width:0.48;" x="124.516974" xlink:href="#m7819014bca" y="238.624221"/>
     <use style="fill:#1f77b4;stroke:#ffffff;stroke-width:0.48;" x="384.778881" xlink:href="#m7819014bca" y="14.579931"/>
     <use style="fill:#1f77b4;stroke:#ffffff;stroke-width:0.48;" x="173.850412" xlink:href="#m7819014bca" y="212.708651"/>
     <use style="fill:#1f77b4;stroke:#ffffff;stroke-width:0.48;" x="166.281844" xlink:href="#m7819014bca" y="189.301038"/>
     <use style="fill:#1f77b4;stroke:#ffffff;stroke-width:0.48;" x="127.400302" xlink:href="#m7819014bca" y="232.772318"/>
     <use style="fill:#1f77b4;stroke:#ffffff;stroke-width:0.48;" x="226.270346" xlink:href="#m7819014bca" y="186.79308"/>
     <use style="fill:#1f77b4;stroke:#ffffff;stroke-width:0.48;" x="211.089771" xlink:href="#m7819014bca" y="130.782007"/>
     <use style="fill:#1f77b4;stroke:#ffffff;stroke-width:0.48;" x="223.888444" xlink:href="#m7819014bca" y="86.47474"/>
     <use style="fill:#1f77b4;stroke:#ffffff;stroke-width:0.48;" x="270.393632" xlink:href="#m7819014bca" y="174.253287"/>
     <use style="fill:#1f77b4;stroke:#ffffff;stroke-width:0.48;" x="230.752417" xlink:href="#m7819014bca" y="117.406228"/>
     <use style="fill:#1f77b4;stroke:#ffffff;stroke-width:0.48;" x="238.48539" xlink:href="#m7819014bca" y="101.522491"/>
     <use style="fill:#1f77b4;stroke:#ffffff;stroke-width:0.48;" x="156.653534" xlink:href="#m7819014bca" y="180.10519"/>
     <use style="fill:#1f77b4;stroke:#ffffff;stroke-width:0.48;" x="128.879326" xlink:href="#m7819014bca" y="226.084429"/>
     <use style="fill:#1f77b4;stroke:#ffffff;stroke-width:0.48;" x="127.680789" xlink:href="#m7819014bca" y="201.004844"/>
     <use style="fill:#1f77b4;stroke:#ffffff;stroke-width:0.48;" x="117.036844" xlink:href="#m7819014bca" y="241.13218"/>
     <use style="fill:#1f77b4;stroke:#ffffff;stroke-width:0.48;" x="191.500807" xlink:href="#m7819014bca" y="182.613149"/>
     <use style="fill:#1f77b4;stroke:#ffffff;stroke-width:0.48;" x="137.965681" xlink:href="#m7819014bca" y="235.280277"/>
     <use style="fill:#1f77b4;stroke:#ffffff;stroke-width:0.48;" x="134.613559" xlink:href="#m7819014bca" y="216.888581"/>
     <use style="fill:#1f77b4;stroke:#ffffff;stroke-width:0.48;" x="118.712178" xlink:href="#m7819014bca" y="241.968166"/>
     <use style="fill:#1f77b4;stroke:#ffffff;stroke-width:0.48;" x="303.891472" xlink:href="#m7819014bca" y="112.390311"/>
     <use style="fill:#1f77b4;stroke:#ffffff;stroke-width:0.48;" x="150.368824" xlink:href="#m7819014bca" y="224.412457"/>
     <use style="fill:#1f77b4;stroke:#ffffff;stroke-width:0.48;" x="147.711424" xlink:href="#m7819014bca" y="215.216609"/>
     <use style="fill:#1f77b4;stroke:#ffffff;stroke-width:0.48;" x="122.849434" xlink:href="#m7819014bca" y="244.476125"/>
     <use style="fill:#1f77b4;stroke:#ffffff;stroke-width:0.48;" x="304.561668" xlink:href="#m7819014bca" y="96.506574"/>
     <use style="fill:#1f77b4;stroke:#ffffff;stroke-width:0.48;" x="131.841116" xlink:href="#m7819014bca" y="236.952249"/>
     <use style="fill:#1f77b4;stroke:#ffffff;stroke-width:0.48;" x="134.734524" xlink:href="#m7819014bca" y="227.756401"/>
     <use style="fill:#1f77b4;stroke:#ffffff;stroke-width:0.48;" x="118.678819" xlink:href="#m7819014bca" y="247.820069"/>
     <use style="fill:#1f77b4;stroke:#ffffff;stroke-width:0.48;" x="137.142407" xlink:href="#m7819014bca" y="213.544637"/>
     <use style="fill:#1f77b4;stroke:#ffffff;stroke-width:0.48;" x="150.400832" xlink:href="#m7819014bca" y="187.629066"/>
     <use style="fill:#1f77b4;stroke:#ffffff;stroke-width:0.48;" x="130.027254" xlink:href="#m7819014bca" y="193.480969"/>
     <use style="fill:#1f77b4;stroke:#ffffff;stroke-width:0.48;" x="147.53434" xlink:href="#m7819014bca" y="237.788235"/>
     <use style="fill:#1f77b4;stroke:#ffffff;stroke-width:0.48;" x="159.416208" xlink:href="#m7819014bca" y="203.512803"/>
     <use style="fill:#1f77b4;stroke:#ffffff;stroke-width:0.48;" x="163.161677" xlink:href="#m7819014bca" y="177.597232"/>
     <use style="fill:#1f77b4;stroke:#ffffff;stroke-width:0.48;" x="213.593991" xlink:href="#m7819014bca" y="204.348789"/>
     <use style="fill:#1f77b4;stroke:#ffffff;stroke-width:0.48;" x="195.31237" xlink:href="#m7819014bca" y="180.10519"/>
     <use style="fill:#1f77b4;stroke:#ffffff;stroke-width:0.48;" x="203.234794" xlink:href="#m7819014bca" y="156.697578"/>
     <use style="fill:#1f77b4;stroke:#ffffff;stroke-width:0.48;" x="223.753241" xlink:href="#m7819014bca" y="209.364706"/>
     <use style="fill:#1f77b4;stroke:#ffffff;stroke-width:0.48;" x="162.072778" xlink:href="#m7819014bca" y="180.941176"/>
     <use style="fill:#1f77b4;stroke:#ffffff;stroke-width:0.48;" x="191.310109" xlink:href="#m7819014bca" y="164.221453"/>
     <use style="fill:#1f77b4;stroke:#ffffff;stroke-width:0.48;" x="283.64842" xlink:href="#m7819014bca" y="179.269204"/>
     <use style="fill:#1f77b4;stroke:#ffffff;stroke-width:0.48;" x="264.826091" xlink:href="#m7819014bca" y="92.326644"/>
     <use style="fill:#1f77b4;stroke:#ffffff;stroke-width:0.48;" x="295.45297" xlink:href="#m7819014bca" y="48.855363"/>
     <use style="fill:#1f77b4;stroke:#ffffff;stroke-width:0.48;" x="155.869439" xlink:href="#m7819014bca" y="224.412457"/>
     <use style="fill:#1f77b4;stroke:#ffffff;stroke-width:0.48;" x="144.555299" xlink:href="#m7819014bca" y="223.576471"/>
     <use style="fill:#1f77b4;stroke:#ffffff;stroke-width:0.48;" x="135.950209" xlink:href="#m7819014bca" y="224.412457"/>
     <use style="fill:#1f77b4;stroke:#ffffff;stroke-width:0.48;" x="161.904839" xlink:href="#m7819014bca" y="216.052595"/>
     <use style="fill:#1f77b4;stroke:#ffffff;stroke-width:0.48;" x="137.479532" xlink:href="#m7819014bca" y="202.676817"/>
     <use style="fill:#1f77b4;stroke:#ffffff;stroke-width:0.48;" x="132.675925" xlink:href="#m7819014bca" y="190.97301"/>
     <use style="fill:#1f77b4;stroke:#ffffff;stroke-width:0.48;" x="120.60128" xlink:href="#m7819014bca" y="246.984083"/>
     <use style="fill:#1f77b4;stroke:#ffffff;stroke-width:0.48;" x="120.341266" xlink:href="#m7819014bca" y="241.13218"/>
     <use style="fill:#1f77b4;stroke:#ffffff;stroke-width:0.48;" x="123.654729" xlink:href="#m7819014bca" y="235.280277"/>
    </g>
   </g>
   <g id="matplotlib.axis_1">
    <g id="xtick_1">
     <g id="line2d_1">
      <path clip-path="url(#p8e563b97aa)" d="M 112.68 252 
L 112.68 34.56 
" style="fill:none;stroke:#b0b0b0;stroke-linecap:square;stroke-width:0.8;"/>
     </g>
     <g id="line2d_2">
      <defs>
       <path d="M 0 0 
L 0 3.5 
" id="m92150cac60" style="stroke:#000000;stroke-width:0.8;"/>
      </defs>
      <g>
       <use style="stroke:#000000;stroke-width:0.8;" x="112.68" xlink:href="#m92150cac60" y="252"/>
      </g>
     </g>
     <g id="text_1">
      <!-- 0.00 -->
      <g transform="translate(101.547188 266.598437)scale(0.1 -0.1)">
       <defs>
        <path d="M 2034 4250 
Q 1547 4250 1301 3770 
Q 1056 3291 1056 2328 
Q 1056 1369 1301 889 
Q 1547 409 2034 409 
Q 2525 409 2770 889 
Q 3016 1369 3016 2328 
Q 3016 3291 2770 3770 
Q 2525 4250 2034 4250 
z
M 2034 4750 
Q 2819 4750 3233 4129 
Q 3647 3509 3647 2328 
Q 3647 1150 3233 529 
Q 2819 -91 2034 -91 
Q 1250 -91 836 529 
Q 422 1150 422 2328 
Q 422 3509 836 4129 
Q 1250 4750 2034 4750 
z
" id="DejaVuSans-30" transform="scale(0.015625)"/>
        <path d="M 684 794 
L 1344 794 
L 1344 0 
L 684 0 
L 684 794 
z
" id="DejaVuSans-2e" transform="scale(0.015625)"/>
       </defs>
       <use xlink:href="#DejaVuSans-30"/>
       <use x="63.623047" xlink:href="#DejaVuSans-2e"/>
       <use x="95.410156" xlink:href="#DejaVuSans-30"/>
       <use x="159.033203" xlink:href="#DejaVuSans-30"/>
      </g>
     </g>
    </g>
    <g id="xtick_2">
     <g id="line2d_3">
      <path clip-path="url(#p8e563b97aa)" d="M 148.92 252 
L 148.92 34.56 
" style="fill:none;stroke:#b0b0b0;stroke-linecap:square;stroke-width:0.8;"/>
     </g>
     <g id="line2d_4">
      <g>
       <use style="stroke:#000000;stroke-width:0.8;" x="148.92" xlink:href="#m92150cac60" y="252"/>
      </g>
     </g>
     <g id="text_2">
      <!-- 0.05 -->
      <g transform="translate(137.787188 266.598437)scale(0.1 -0.1)">
       <defs>
        <path d="M 691 4666 
L 3169 4666 
L 3169 4134 
L 1269 4134 
L 1269 2991 
Q 1406 3038 1543 3061 
Q 1681 3084 1819 3084 
Q 2600 3084 3056 2656 
Q 3513 2228 3513 1497 
Q 3513 744 3044 326 
Q 2575 -91 1722 -91 
Q 1428 -91 1123 -41 
Q 819 9 494 109 
L 494 744 
Q 775 591 1075 516 
Q 1375 441 1709 441 
Q 2250 441 2565 725 
Q 2881 1009 2881 1497 
Q 2881 1984 2565 2268 
Q 2250 2553 1709 2553 
Q 1456 2553 1204 2497 
Q 953 2441 691 2322 
L 691 4666 
z
" id="DejaVuSans-35" transform="scale(0.015625)"/>
       </defs>
       <use xlink:href="#DejaVuSans-30"/>
       <use x="63.623047" xlink:href="#DejaVuSans-2e"/>
       <use x="95.410156" xlink:href="#DejaVuSans-30"/>
       <use x="159.033203" xlink:href="#DejaVuSans-35"/>
      </g>
     </g>
    </g>
    <g id="xtick_3">
     <g id="line2d_5">
      <path clip-path="url(#p8e563b97aa)" d="M 185.16 252 
L 185.16 34.56 
" style="fill:none;stroke:#b0b0b0;stroke-linecap:square;stroke-width:0.8;"/>
     </g>
     <g id="line2d_6">
      <g>
       <use style="stroke:#000000;stroke-width:0.8;" x="185.16" xlink:href="#m92150cac60" y="252"/>
      </g>
     </g>
     <g id="text_3">
      <!-- 0.10 -->
      <g transform="translate(174.027188 266.598437)scale(0.1 -0.1)">
       <defs>
        <path d="M 794 531 
L 1825 531 
L 1825 4091 
L 703 3866 
L 703 4441 
L 1819 4666 
L 2450 4666 
L 2450 531 
L 3481 531 
L 3481 0 
L 794 0 
L 794 531 
z
" id="DejaVuSans-31" transform="scale(0.015625)"/>
       </defs>
       <use xlink:href="#DejaVuSans-30"/>
       <use x="63.623047" xlink:href="#DejaVuSans-2e"/>
       <use x="95.410156" xlink:href="#DejaVuSans-31"/>
       <use x="159.033203" xlink:href="#DejaVuSans-30"/>
      </g>
     </g>
    </g>
    <g id="xtick_4">
     <g id="line2d_7">
      <path clip-path="url(#p8e563b97aa)" d="M 221.4 252 
L 221.4 34.56 
" style="fill:none;stroke:#b0b0b0;stroke-linecap:square;stroke-width:0.8;"/>
     </g>
     <g id="line2d_8">
      <g>
       <use style="stroke:#000000;stroke-width:0.8;" x="221.4" xlink:href="#m92150cac60" y="252"/>
      </g>
     </g>
     <g id="text_4">
      <!-- 0.15 -->
      <g transform="translate(210.267188 266.598437)scale(0.1 -0.1)">
       <use xlink:href="#DejaVuSans-30"/>
       <use x="63.623047" xlink:href="#DejaVuSans-2e"/>
       <use x="95.410156" xlink:href="#DejaVuSans-31"/>
       <use x="159.033203" xlink:href="#DejaVuSans-35"/>
      </g>
     </g>
    </g>
    <g id="xtick_5">
     <g id="line2d_9">
      <path clip-path="url(#p8e563b97aa)" d="M 257.64 252 
L 257.64 34.56 
" style="fill:none;stroke:#b0b0b0;stroke-linecap:square;stroke-width:0.8;"/>
     </g>
     <g id="line2d_10">
      <g>
       <use style="stroke:#000000;stroke-width:0.8;" x="257.64" xlink:href="#m92150cac60" y="252"/>
      </g>
     </g>
     <g id="text_5">
      <!-- 0.20 -->
      <g transform="translate(246.507187 266.598437)scale(0.1 -0.1)">
       <defs>
        <path d="M 1228 531 
L 3431 531 
L 3431 0 
L 469 0 
L 469 531 
Q 828 903 1448 1529 
Q 2069 2156 2228 2338 
Q 2531 2678 2651 2914 
Q 2772 3150 2772 3378 
Q 2772 3750 2511 3984 
Q 2250 4219 1831 4219 
Q 1534 4219 1204 4116 
Q 875 4013 500 3803 
L 500 4441 
Q 881 4594 1212 4672 
Q 1544 4750 1819 4750 
Q 2544 4750 2975 4387 
Q 3406 4025 3406 3419 
Q 3406 3131 3298 2873 
Q 3191 2616 2906 2266 
Q 2828 2175 2409 1742 
Q 1991 1309 1228 531 
z
" id="DejaVuSans-32" transform="scale(0.015625)"/>
       </defs>
       <use xlink:href="#DejaVuSans-30"/>
       <use x="63.623047" xlink:href="#DejaVuSans-2e"/>
       <use x="95.410156" xlink:href="#DejaVuSans-32"/>
       <use x="159.033203" xlink:href="#DejaVuSans-30"/>
      </g>
     </g>
    </g>
    <g id="xtick_6">
     <g id="line2d_11">
      <path clip-path="url(#p8e563b97aa)" d="M 293.88 252 
L 293.88 34.56 
" style="fill:none;stroke:#b0b0b0;stroke-linecap:square;stroke-width:0.8;"/>
     </g>
     <g id="line2d_12">
      <g>
       <use style="stroke:#000000;stroke-width:0.8;" x="293.88" xlink:href="#m92150cac60" y="252"/>
      </g>
     </g>
     <g id="text_6">
      <!-- 0.25 -->
      <g transform="translate(282.747187 266.598437)scale(0.1 -0.1)">
       <use xlink:href="#DejaVuSans-30"/>
       <use x="63.623047" xlink:href="#DejaVuSans-2e"/>
       <use x="95.410156" xlink:href="#DejaVuSans-32"/>
       <use x="159.033203" xlink:href="#DejaVuSans-35"/>
      </g>
     </g>
    </g>
    <g id="xtick_7">
     <g id="line2d_13">
      <path clip-path="url(#p8e563b97aa)" d="M 330.12 252 
L 330.12 34.56 
" style="fill:none;stroke:#b0b0b0;stroke-linecap:square;stroke-width:0.8;"/>
     </g>
     <g id="line2d_14">
      <g>
       <use style="stroke:#000000;stroke-width:0.8;" x="330.12" xlink:href="#m92150cac60" y="252"/>
      </g>
     </g>
     <g id="text_7">
      <!-- 0.30 -->
      <g transform="translate(318.987188 266.598437)scale(0.1 -0.1)">
       <defs>
        <path d="M 2597 2516 
Q 3050 2419 3304 2112 
Q 3559 1806 3559 1356 
Q 3559 666 3084 287 
Q 2609 -91 1734 -91 
Q 1441 -91 1130 -33 
Q 819 25 488 141 
L 488 750 
Q 750 597 1062 519 
Q 1375 441 1716 441 
Q 2309 441 2620 675 
Q 2931 909 2931 1356 
Q 2931 1769 2642 2001 
Q 2353 2234 1838 2234 
L 1294 2234 
L 1294 2753 
L 1863 2753 
Q 2328 2753 2575 2939 
Q 2822 3125 2822 3475 
Q 2822 3834 2567 4026 
Q 2313 4219 1838 4219 
Q 1578 4219 1281 4162 
Q 984 4106 628 3988 
L 628 4550 
Q 988 4650 1302 4700 
Q 1616 4750 1894 4750 
Q 2613 4750 3031 4423 
Q 3450 4097 3450 3541 
Q 3450 3153 3228 2886 
Q 3006 2619 2597 2516 
z
" id="DejaVuSans-33" transform="scale(0.015625)"/>
       </defs>
       <use xlink:href="#DejaVuSans-30"/>
       <use x="63.623047" xlink:href="#DejaVuSans-2e"/>
       <use x="95.410156" xlink:href="#DejaVuSans-33"/>
       <use x="159.033203" xlink:href="#DejaVuSans-30"/>
      </g>
     </g>
    </g>
    <g id="text_8">
     <!-- Electoral_Proportion -->
     <g transform="translate(171.201562 280.276563)scale(0.1 -0.1)">
      <defs>
       <path d="M 628 4666 
L 3578 4666 
L 3578 4134 
L 1259 4134 
L 1259 2753 
L 3481 2753 
L 3481 2222 
L 1259 2222 
L 1259 531 
L 3634 531 
L 3634 0 
L 628 0 
L 628 4666 
z
" id="DejaVuSans-45" transform="scale(0.015625)"/>
       <path d="M 603 4863 
L 1178 4863 
L 1178 0 
L 603 0 
L 603 4863 
z
" id="DejaVuSans-6c" transform="scale(0.015625)"/>
       <path d="M 3597 1894 
L 3597 1613 
L 953 1613 
Q 991 1019 1311 708 
Q 1631 397 2203 397 
Q 2534 397 2845 478 
Q 3156 559 3463 722 
L 3463 178 
Q 3153 47 2828 -22 
Q 2503 -91 2169 -91 
Q 1331 -91 842 396 
Q 353 884 353 1716 
Q 353 2575 817 3079 
Q 1281 3584 2069 3584 
Q 2775 3584 3186 3129 
Q 3597 2675 3597 1894 
z
M 3022 2063 
Q 3016 2534 2758 2815 
Q 2500 3097 2075 3097 
Q 1594 3097 1305 2825 
Q 1016 2553 972 2059 
L 3022 2063 
z
" id="DejaVuSans-65" transform="scale(0.015625)"/>
       <path d="M 3122 3366 
L 3122 2828 
Q 2878 2963 2633 3030 
Q 2388 3097 2138 3097 
Q 1578 3097 1268 2742 
Q 959 2388 959 1747 
Q 959 1106 1268 751 
Q 1578 397 2138 397 
Q 2388 397 2633 464 
Q 2878 531 3122 666 
L 3122 134 
Q 2881 22 2623 -34 
Q 2366 -91 2075 -91 
Q 1284 -91 818 406 
Q 353 903 353 1747 
Q 353 2603 823 3093 
Q 1294 3584 2113 3584 
Q 2378 3584 2631 3529 
Q 2884 3475 3122 3366 
z
" id="DejaVuSans-63" transform="scale(0.015625)"/>
       <path d="M 1172 4494 
L 1172 3500 
L 2356 3500 
L 2356 3053 
L 1172 3053 
L 1172 1153 
Q 1172 725 1289 603 
Q 1406 481 1766 481 
L 2356 481 
L 2356 0 
L 1766 0 
Q 1100 0 847 248 
Q 594 497 594 1153 
L 594 3053 
L 172 3053 
L 172 3500 
L 594 3500 
L 594 4494 
L 1172 4494 
z
" id="DejaVuSans-74" transform="scale(0.015625)"/>
       <path d="M 1959 3097 
Q 1497 3097 1228 2736 
Q 959 2375 959 1747 
Q 959 1119 1226 758 
Q 1494 397 1959 397 
Q 2419 397 2687 759 
Q 2956 1122 2956 1747 
Q 2956 2369 2687 2733 
Q 2419 3097 1959 3097 
z
M 1959 3584 
Q 2709 3584 3137 3096 
Q 3566 2609 3566 1747 
Q 3566 888 3137 398 
Q 2709 -91 1959 -91 
Q 1206 -91 779 398 
Q 353 888 353 1747 
Q 353 2609 779 3096 
Q 1206 3584 1959 3584 
z
" id="DejaVuSans-6f" transform="scale(0.015625)"/>
       <path d="M 2631 2963 
Q 2534 3019 2420 3045 
Q 2306 3072 2169 3072 
Q 1681 3072 1420 2755 
Q 1159 2438 1159 1844 
L 1159 0 
L 581 0 
L 581 3500 
L 1159 3500 
L 1159 2956 
Q 1341 3275 1631 3429 
Q 1922 3584 2338 3584 
Q 2397 3584 2469 3576 
Q 2541 3569 2628 3553 
L 2631 2963 
z
" id="DejaVuSans-72" transform="scale(0.015625)"/>
       <path d="M 2194 1759 
Q 1497 1759 1228 1600 
Q 959 1441 959 1056 
Q 959 750 1161 570 
Q 1363 391 1709 391 
Q 2188 391 2477 730 
Q 2766 1069 2766 1631 
L 2766 1759 
L 2194 1759 
z
M 3341 1997 
L 3341 0 
L 2766 0 
L 2766 531 
Q 2569 213 2275 61 
Q 1981 -91 1556 -91 
Q 1019 -91 701 211 
Q 384 513 384 1019 
Q 384 1609 779 1909 
Q 1175 2209 1959 2209 
L 2766 2209 
L 2766 2266 
Q 2766 2663 2505 2880 
Q 2244 3097 1772 3097 
Q 1472 3097 1187 3025 
Q 903 2953 641 2809 
L 641 3341 
Q 956 3463 1253 3523 
Q 1550 3584 1831 3584 
Q 2591 3584 2966 3190 
Q 3341 2797 3341 1997 
z
" id="DejaVuSans-61" transform="scale(0.015625)"/>
       <path d="M 3263 -1063 
L 3263 -1509 
L -63 -1509 
L -63 -1063 
L 3263 -1063 
z
" id="DejaVuSans-5f" transform="scale(0.015625)"/>
       <path d="M 1259 4147 
L 1259 2394 
L 2053 2394 
Q 2494 2394 2734 2622 
Q 2975 2850 2975 3272 
Q 2975 3691 2734 3919 
Q 2494 4147 2053 4147 
L 1259 4147 
z
M 628 4666 
L 2053 4666 
Q 2838 4666 3239 4311 
Q 3641 3956 3641 3272 
Q 3641 2581 3239 2228 
Q 2838 1875 2053 1875 
L 1259 1875 
L 1259 0 
L 628 0 
L 628 4666 
z
" id="DejaVuSans-50" transform="scale(0.015625)"/>
       <path d="M 1159 525 
L 1159 -1331 
L 581 -1331 
L 581 3500 
L 1159 3500 
L 1159 2969 
Q 1341 3281 1617 3432 
Q 1894 3584 2278 3584 
Q 2916 3584 3314 3078 
Q 3713 2572 3713 1747 
Q 3713 922 3314 415 
Q 2916 -91 2278 -91 
Q 1894 -91 1617 61 
Q 1341 213 1159 525 
z
M 3116 1747 
Q 3116 2381 2855 2742 
Q 2594 3103 2138 3103 
Q 1681 3103 1420 2742 
Q 1159 2381 1159 1747 
Q 1159 1113 1420 752 
Q 1681 391 2138 391 
Q 2594 391 2855 752 
Q 3116 1113 3116 1747 
z
" id="DejaVuSans-70" transform="scale(0.015625)"/>
       <path d="M 603 3500 
L 1178 3500 
L 1178 0 
L 603 0 
L 603 3500 
z
M 603 4863 
L 1178 4863 
L 1178 4134 
L 603 4134 
L 603 4863 
z
" id="DejaVuSans-69" transform="scale(0.015625)"/>
       <path d="M 3513 2113 
L 3513 0 
L 2938 0 
L 2938 2094 
Q 2938 2591 2744 2837 
Q 2550 3084 2163 3084 
Q 1697 3084 1428 2787 
Q 1159 2491 1159 1978 
L 1159 0 
L 581 0 
L 581 3500 
L 1159 3500 
L 1159 2956 
Q 1366 3272 1645 3428 
Q 1925 3584 2291 3584 
Q 2894 3584 3203 3211 
Q 3513 2838 3513 2113 
z
" id="DejaVuSans-6e" transform="scale(0.015625)"/>
      </defs>
      <use xlink:href="#DejaVuSans-45"/>
      <use x="63.183594" xlink:href="#DejaVuSans-6c"/>
      <use x="90.966797" xlink:href="#DejaVuSans-65"/>
      <use x="152.490234" xlink:href="#DejaVuSans-63"/>
      <use x="207.470703" xlink:href="#DejaVuSans-74"/>
      <use x="246.679688" xlink:href="#DejaVuSans-6f"/>
      <use x="307.861328" xlink:href="#DejaVuSans-72"/>
      <use x="348.974609" xlink:href="#DejaVuSans-61"/>
      <use x="410.253906" xlink:href="#DejaVuSans-6c"/>
      <use x="438.037109" xlink:href="#DejaVuSans-5f"/>
      <use x="488.037109" xlink:href="#DejaVuSans-50"/>
      <use x="546.589844" xlink:href="#DejaVuSans-72"/>
      <use x="585.453125" xlink:href="#DejaVuSans-6f"/>
      <use x="646.634766" xlink:href="#DejaVuSans-70"/>
      <use x="710.111328" xlink:href="#DejaVuSans-6f"/>
      <use x="771.292969" xlink:href="#DejaVuSans-72"/>
      <use x="812.40625" xlink:href="#DejaVuSans-74"/>
      <use x="851.615234" xlink:href="#DejaVuSans-69"/>
      <use x="879.398438" xlink:href="#DejaVuSans-6f"/>
      <use x="940.580078" xlink:href="#DejaVuSans-6e"/>
     </g>
    </g>
   </g>
   <g id="matplotlib.axis_2">
    <g id="ytick_1">
     <g id="line2d_15">
      <path clip-path="url(#p8e563b97aa)" d="M 112.68 252 
L 330.12 252 
" style="fill:none;stroke:#b0b0b0;stroke-linecap:square;stroke-width:0.8;"/>
     </g>
     <g id="line2d_16">
      <defs>
       <path d="M 0 0 
L -3.5 0 
" id="m5f5221f8e1" style="stroke:#000000;stroke-width:0.8;"/>
      </defs>
      <g>
       <use style="stroke:#000000;stroke-width:0.8;" x="112.68" xlink:href="#m5f5221f8e1" y="252"/>
      </g>
     </g>
     <g id="text_9">
      <!-- 0.00 -->
      <g transform="translate(83.414375 255.799219)scale(0.1 -0.1)">
       <use xlink:href="#DejaVuSans-30"/>
       <use x="63.623047" xlink:href="#DejaVuSans-2e"/>
       <use x="95.410156" xlink:href="#DejaVuSans-30"/>
       <use x="159.033203" xlink:href="#DejaVuSans-30"/>
      </g>
     </g>
    </g>
    <g id="ytick_2">
     <g id="line2d_17">
      <path clip-path="url(#p8e563b97aa)" d="M 112.68 215.76 
L 330.12 215.76 
" style="fill:none;stroke:#b0b0b0;stroke-linecap:square;stroke-width:0.8;"/>
     </g>
     <g id="line2d_18">
      <g>
       <use style="stroke:#000000;stroke-width:0.8;" x="112.68" xlink:href="#m5f5221f8e1" y="215.76"/>
      </g>
     </g>
     <g id="text_10">
      <!-- 0.05 -->
      <g transform="translate(83.414375 219.559219)scale(0.1 -0.1)">
       <use xlink:href="#DejaVuSans-30"/>
       <use x="63.623047" xlink:href="#DejaVuSans-2e"/>
       <use x="95.410156" xlink:href="#DejaVuSans-30"/>
       <use x="159.033203" xlink:href="#DejaVuSans-35"/>
      </g>
     </g>
    </g>
    <g id="ytick_3">
     <g id="line2d_19">
      <path clip-path="url(#p8e563b97aa)" d="M 112.68 179.52 
L 330.12 179.52 
" style="fill:none;stroke:#b0b0b0;stroke-linecap:square;stroke-width:0.8;"/>
     </g>
     <g id="line2d_20">
      <g>
       <use style="stroke:#000000;stroke-width:0.8;" x="112.68" xlink:href="#m5f5221f8e1" y="179.52"/>
      </g>
     </g>
     <g id="text_11">
      <!-- 0.10 -->
      <g transform="translate(83.414375 183.319219)scale(0.1 -0.1)">
       <use xlink:href="#DejaVuSans-30"/>
       <use x="63.623047" xlink:href="#DejaVuSans-2e"/>
       <use x="95.410156" xlink:href="#DejaVuSans-31"/>
       <use x="159.033203" xlink:href="#DejaVuSans-30"/>
      </g>
     </g>
    </g>
    <g id="ytick_4">
     <g id="line2d_21">
      <path clip-path="url(#p8e563b97aa)" d="M 112.68 143.28 
L 330.12 143.28 
" style="fill:none;stroke:#b0b0b0;stroke-linecap:square;stroke-width:0.8;"/>
     </g>
     <g id="line2d_22">
      <g>
       <use style="stroke:#000000;stroke-width:0.8;" x="112.68" xlink:href="#m5f5221f8e1" y="143.28"/>
      </g>
     </g>
     <g id="text_12">
      <!-- 0.15 -->
      <g transform="translate(83.414375 147.079219)scale(0.1 -0.1)">
       <use xlink:href="#DejaVuSans-30"/>
       <use x="63.623047" xlink:href="#DejaVuSans-2e"/>
       <use x="95.410156" xlink:href="#DejaVuSans-31"/>
       <use x="159.033203" xlink:href="#DejaVuSans-35"/>
      </g>
     </g>
    </g>
    <g id="ytick_5">
     <g id="line2d_23">
      <path clip-path="url(#p8e563b97aa)" d="M 112.68 107.04 
L 330.12 107.04 
" style="fill:none;stroke:#b0b0b0;stroke-linecap:square;stroke-width:0.8;"/>
     </g>
     <g id="line2d_24">
      <g>
       <use style="stroke:#000000;stroke-width:0.8;" x="112.68" xlink:href="#m5f5221f8e1" y="107.04"/>
      </g>
     </g>
     <g id="text_13">
      <!-- 0.20 -->
      <g transform="translate(83.414375 110.839219)scale(0.1 -0.1)">
       <use xlink:href="#DejaVuSans-30"/>
       <use x="63.623047" xlink:href="#DejaVuSans-2e"/>
       <use x="95.410156" xlink:href="#DejaVuSans-32"/>
       <use x="159.033203" xlink:href="#DejaVuSans-30"/>
      </g>
     </g>
    </g>
    <g id="ytick_6">
     <g id="line2d_25">
      <path clip-path="url(#p8e563b97aa)" d="M 112.68 70.8 
L 330.12 70.8 
" style="fill:none;stroke:#b0b0b0;stroke-linecap:square;stroke-width:0.8;"/>
     </g>
     <g id="line2d_26">
      <g>
       <use style="stroke:#000000;stroke-width:0.8;" x="112.68" xlink:href="#m5f5221f8e1" y="70.8"/>
      </g>
     </g>
     <g id="text_14">
      <!-- 0.25 -->
      <g transform="translate(83.414375 74.599219)scale(0.1 -0.1)">
       <use xlink:href="#DejaVuSans-30"/>
       <use x="63.623047" xlink:href="#DejaVuSans-2e"/>
       <use x="95.410156" xlink:href="#DejaVuSans-32"/>
       <use x="159.033203" xlink:href="#DejaVuSans-35"/>
      </g>
     </g>
    </g>
    <g id="ytick_7">
     <g id="line2d_27">
      <path clip-path="url(#p8e563b97aa)" d="M 112.68 34.56 
L 330.12 34.56 
" style="fill:none;stroke:#b0b0b0;stroke-linecap:square;stroke-width:0.8;"/>
     </g>
     <g id="line2d_28">
      <g>
       <use style="stroke:#000000;stroke-width:0.8;" x="112.68" xlink:href="#m5f5221f8e1" y="34.56"/>
      </g>
     </g>
     <g id="text_15">
      <!-- 0.30 -->
      <g transform="translate(83.414375 38.359219)scale(0.1 -0.1)">
       <use xlink:href="#DejaVuSans-30"/>
       <use x="63.623047" xlink:href="#DejaVuSans-2e"/>
       <use x="95.410156" xlink:href="#DejaVuSans-33"/>
       <use x="159.033203" xlink:href="#DejaVuSans-30"/>
      </g>
     </g>
    </g>
    <g id="text_16">
     <!-- Poll_Proportion -->
     <g transform="translate(77.056563 180.247187)rotate(-90)scale(0.1 -0.1)">
      <use xlink:href="#DejaVuSans-50"/>
      <use x="56.677734" xlink:href="#DejaVuSans-6f"/>
      <use x="117.859375" xlink:href="#DejaVuSans-6c"/>
      <use x="145.642578" xlink:href="#DejaVuSans-6c"/>
      <use x="173.425781" xlink:href="#DejaVuSans-5f"/>
      <use x="223.425781" xlink:href="#DejaVuSans-50"/>
      <use x="281.978516" xlink:href="#DejaVuSans-72"/>
      <use x="320.841797" xlink:href="#DejaVuSans-6f"/>
      <use x="382.023438" xlink:href="#DejaVuSans-70"/>
      <use x="445.5" xlink:href="#DejaVuSans-6f"/>
      <use x="506.681641" xlink:href="#DejaVuSans-72"/>
      <use x="547.794922" xlink:href="#DejaVuSans-74"/>
      <use x="587.003906" xlink:href="#DejaVuSans-69"/>
      <use x="614.787109" xlink:href="#DejaVuSans-6f"/>
      <use x="675.96875" xlink:href="#DejaVuSans-6e"/>
     </g>
    </g>
   </g>
   <g id="line2d_29">
    <path clip-path="url(#p8e563b97aa)" d="M 112.68 252 
L 365.68 -1 
" style="fill:none;stroke:#4c4c4c;stroke-dasharray:5.55,2.4;stroke-dashoffset:0;stroke-width:1.5;"/>
   </g>
   <g id="patch_3">
    <path d="M 112.68 252 
L 112.68 34.56 
" style="fill:none;stroke:#000000;stroke-linecap:square;stroke-linejoin:miter;stroke-width:0.8;"/>
   </g>
   <g id="patch_4">
    <path d="M 330.12 252 
L 330.12 34.56 
" style="fill:none;stroke:#000000;stroke-linecap:square;stroke-linejoin:miter;stroke-width:0.8;"/>
   </g>
   <g id="patch_5">
    <path d="M 112.68 252 
L 330.12 252 
" style="fill:none;stroke:#000000;stroke-linecap:square;stroke-linejoin:miter;stroke-width:0.8;"/>
   </g>
   <g id="patch_6">
    <path d="M 112.68 34.56 
L 330.12 34.56 
" style="fill:none;stroke:#000000;stroke-linecap:square;stroke-linejoin:miter;stroke-width:0.8;"/>
   </g>
  </g>
 </g>
 <defs>
  <clipPath id="p8e563b97aa">
   <rect height="217.44" width="217.44" x="112.68" y="34.56"/>
  </clipPath>
 </defs>
</svg>
