<?xml version="1.0" encoding="utf-8" standalone="no"?>
<!DOCTYPE svg PUBLIC "-//W3C//DTD SVG 1.1//EN"
  "http://www.w3.org/Graphics/SVG/1.1/DTD/svg11.dtd">
<!-- Created with matplotlib (https://matplotlib.org/) -->
<svg height="288pt" version="1.1" viewBox="0 0 432 288" width="432pt" xmlns="http://www.w3.org/2000/svg" xmlns:xlink="http://www.w3.org/1999/xlink">
 <metadata>
  <rdf:RDF xmlns:cc="http://creativecommons.org/ns#" xmlns:dc="http://purl.org/dc/elements/1.1/" xmlns:rdf="http://www.w3.org/1999/02/22-rdf-syntax-ns#">
   <cc:Work>
    <dc:type rdf:resource="http://purl.org/dc/dcmitype/StillImage"/>
    <dc:date>2021-09-20T23:50:21.401825</dc:date>
    <dc:format>image/svg+xml</dc:format>
    <dc:creator>
     <cc:Agent>
      <dc:title>Matplotlib v3.3.4, https://matplotlib.org/</dc:title>
     </cc:Agent>
    </dc:creator>
   </cc:Work>
  </rdf:RDF>
 </metadata>
 <defs>
  <style type="text/css">*{stroke-linecap:butt;stroke-linejoin:round;}</style>
 </defs>
 <g id="figure_1">
  <g id="patch_1">
   <path d="M 0 288 
L 432 288 
L 432 0 
L 0 0 
z
" style="fill:none;"/>
  </g>
  <g id="axes_1">
   <g id="patch_2">
    <path d="M 112.68 252 
L 330.12 252 
L 330.12 34.56 
L 112.68 34.56 
z
" style="fill:#ffffff;"/>
   </g>
   <g id="PathCollection_1">
    <defs>
     <path d="M 0 3 
C 0.795609 3 1.55874 2.683901 2.12132 2.12132 
C 2.683901 1.55874 3 0.795609 3 0 
C 3 -0.795609 2.683901 -1.55874 2.12132 -2.12132 
C 1.55874 -2.683901 0.795609 -3 0 -3 
C -0.795609 -3 -1.55874 -2.683901 -2.12132 -2.12132 
C -2.683901 -1.55874 -3 -0.795609 -3 0 
C -3 0.795609 -2.683901 1.55874 -2.12132 2.12132 
C -1.55874 2.683901 -0.795609 3 0 3 
z
" id="m8f52b15db7" style="stroke:#ffffff;stroke-width:0.48;"/>
    </defs>
    <g clip-path="url(#pa7972e6a48)">
     <use style="fill:#1f77b4;stroke:#ffffff;stroke-width:0.48;" x="394.727519" xlink:href="#m8f52b15db7" y="-1"/>
     <use style="fill:#1f77b4;stroke:#ffffff;stroke-width:0.48;" x="401.721253" xlink:href="#m8f52b15db7" y="54.707266"/>
     <use style="fill:#1f77b4;stroke:#ffffff;stroke-width:0.48;" x="267.268996" xlink:href="#m8f52b15db7" y="-0.46782"/>
     <use style="fill:#1f77b4;stroke:#ffffff;stroke-width:0.48;" x="268.134653" xlink:href="#m8f52b15db7" y="-1"/>
     <use style="fill:#1f77b4;stroke:#ffffff;stroke-width:0.48;" x="334.588169" xlink:href="#m8f52b15db7" y="-1"/>
     <use style="fill:#1f77b4;stroke:#ffffff;stroke-width:0.48;" x="192.210493" xlink:href="#m8f52b15db7" y="90.654671"/>
     <use style="fill:#1f77b4;stroke:#ffffff;stroke-width:0.48;" x="244.752225" xlink:href="#m8f52b15db7" y="111.554325"/>
     <use style="fill:#1f77b4;stroke:#ffffff;stroke-width:0.48;" x="386.781155" xlink:href="#m8f52b15db7" y="32.13564"/>
     <use style="fill:#1f77b4;stroke:#ffffff;stroke-width:0.48;" x="351.776127" xlink:href="#m8f52b15db7" y="48.855363"/>
     <use style="fill:#1f77b4;stroke:#ffffff;stroke-width:0.48;" x="408.803104" xlink:href="#m8f52b15db7" y="-1"/>
     <use style="fill:#1f77b4;stroke:#ffffff;stroke-width:0.48;" x="405.705305" xlink:href="#m8f52b15db7" y="-1"/>
     <use style="fill:#1f77b4;stroke:#ffffff;stroke-width:0.48;" x="211.014947" xlink:href="#m8f52b15db7" y="166.729412"/>
     <use style="fill:#1f77b4;stroke:#ffffff;stroke-width:0.48;" x="206.700295" xlink:href="#m8f52b15db7" y="104.866436"/>
     <use style="fill:#1f77b4;stroke:#ffffff;stroke-width:0.48;" x="139.237276" xlink:href="#m8f52b15db7" y="219.39654"/>
     <use style="fill:#1f77b4;stroke:#ffffff;stroke-width:0.48;" x="383.983978" xlink:href="#m8f52b15db7" y="109.046367"/>
     <use style="fill:#1f77b4;stroke:#ffffff;stroke-width:0.48;" x="330.528027" xlink:href="#m8f52b15db7" y="-1"/>
     <use style="fill:#1f77b4;stroke:#ffffff;stroke-width:0.48;" x="310.517434" xlink:href="#m8f52b15db7" y="-1"/>
     <use style="fill:#1f77b4;stroke:#ffffff;stroke-width:0.48;" x="221.814879" xlink:href="#m8f52b15db7" y="141.649827"/>
     <use style="fill:#1f77b4;stroke:#ffffff;stroke-width:0.48;" x="284.714872" xlink:href="#m8f52b15db7" y="102.358478"/>
     <use style="fill:#1f77b4;stroke:#ffffff;stroke-width:0.48;" x="251.989384" xlink:href="#m8f52b15db7" y="155.025606"/>
     <use style="fill:#1f77b4;stroke:#ffffff;stroke-width:0.48;" x="262.411869" xlink:href="#m8f52b15db7" y="151.681661"/>
     <use style="fill:#1f77b4;stroke:#ffffff;stroke-width:0.48;" x="187.444298" xlink:href="#m8f52b15db7" y="108.210381"/>
     <use style="fill:#1f77b4;stroke:#ffffff;stroke-width:0.48;" x="192.504698" xlink:href="#m8f52b15db7" y="143.321799"/>
     <use style="fill:#1f77b4;stroke:#ffffff;stroke-width:0.48;" x="142.975366" xlink:href="#m8f52b15db7" y="194.316955"/>
     <use style="fill:#1f77b4;stroke:#ffffff;stroke-width:0.48;" x="166.237054" xlink:href="#m8f52b15db7" y="198.496886"/>
     <use style="fill:#1f77b4;stroke:#ffffff;stroke-width:0.48;" x="218.189545" xlink:href="#m8f52b15db7" y="175.92526"/>
     <use style="fill:#1f77b4;stroke:#ffffff;stroke-width:0.48;" x="204.487787" xlink:href="#m8f52b15db7" y="179.269204"/>
     <use style="fill:#1f77b4;stroke:#ffffff;stroke-width:0.48;" x="136.606064" xlink:href="#m8f52b15db7" y="223.576471"/>
     <use style="fill:#1f77b4;stroke:#ffffff;stroke-width:0.48;" x="156.110955" xlink:href="#m8f52b15db7" y="217.724567"/>
     <use style="fill:#1f77b4;stroke:#ffffff;stroke-width:0.48;" x="226.81386" xlink:href="#m8f52b15db7" y="190.137024"/>
     <use style="fill:#1f77b4;stroke:#ffffff;stroke-width:0.48;" x="220.230374" xlink:href="#m8f52b15db7" y="179.269204"/>
     <use style="fill:#1f77b4;stroke:#ffffff;stroke-width:0.48;" x="137.989064" xlink:href="#m8f52b15db7" y="180.941176"/>
     <use style="fill:#1f77b4;stroke:#ffffff;stroke-width:0.48;" x="147.764216" xlink:href="#m8f52b15db7" y="203.512803"/>
     <use style="fill:#1f77b4;stroke:#ffffff;stroke-width:0.48;" x="167.137749" xlink:href="#m8f52b15db7" y="172.581315"/>
     <use style="fill:#1f77b4;stroke:#ffffff;stroke-width:0.48;" x="152.417967" xlink:href="#m8f52b15db7" y="198.496886"/>
     <use style="fill:#1f77b4;stroke:#ffffff;stroke-width:0.48;" x="265.341443" xlink:href="#m8f52b15db7" y="144.157785"/>
     <use style="fill:#1f77b4;stroke:#ffffff;stroke-width:0.48;" x="195.689089" xlink:href="#m8f52b15db7" y="192.644983"/>
     <use style="fill:#1f77b4;stroke:#ffffff;stroke-width:0.48;" x="148.396272" xlink:href="#m8f52b15db7" y="178.433218"/>
     <use style="fill:#1f77b4;stroke:#ffffff;stroke-width:0.48;" x="122.462947" xlink:href="#m8f52b15db7" y="237.788235"/>
     <use style="fill:#1f77b4;stroke:#ffffff;stroke-width:0.48;" x="361.617583" xlink:href="#m8f52b15db7" y="91.490657"/>
     <use style="fill:#1f77b4;stroke:#ffffff;stroke-width:0.48;" x="115.824485" xlink:href="#m8f52b15db7" y="250.328028"/>
     <use style="fill:#1f77b4;stroke:#ffffff;stroke-width:0.48;" x="142.231385" xlink:href="#m8f52b15db7" y="224.412457"/>
     <use style="fill:#1f77b4;stroke:#ffffff;stroke-width:0.48;" x="120.087799" xlink:href="#m8f52b15db7" y="247.820069"/>
     <use style="fill:#1f77b4;stroke:#ffffff;stroke-width:0.48;" x="216.968456" xlink:href="#m8f52b15db7" y="90.654671"/>
     <use style="fill:#1f77b4;stroke:#ffffff;stroke-width:0.48;" x="124.861373" xlink:href="#m8f52b15db7" y="229.428374"/>
     <use style="fill:#1f77b4;stroke:#ffffff;stroke-width:0.48;" x="141.432638" xlink:href="#m8f52b15db7" y="208.52872"/>
     <use style="fill:#1f77b4;stroke:#ffffff;stroke-width:0.48;" x="122.04653" xlink:href="#m8f52b15db7" y="238.624221"/>
     <use style="fill:#1f77b4;stroke:#ffffff;stroke-width:0.48;" x="229.815348" xlink:href="#m8f52b15db7" y="194.316955"/>
     <use style="fill:#1f77b4;stroke:#ffffff;stroke-width:0.48;" x="194.265871" xlink:href="#m8f52b15db7" y="165.893426"/>
     <use style="fill:#1f77b4;stroke:#ffffff;stroke-width:0.48;" x="195.128532" xlink:href="#m8f52b15db7" y="139.141869"/>
     <use style="fill:#1f77b4;stroke:#ffffff;stroke-width:0.48;" x="212.161108" xlink:href="#m8f52b15db7" y="211.872664"/>
     <use style="fill:#1f77b4;stroke:#ffffff;stroke-width:0.48;" x="198.172004" xlink:href="#m8f52b15db7" y="185.957093"/>
     <use style="fill:#1f77b4;stroke:#ffffff;stroke-width:0.48;" x="216.748141" xlink:href="#m8f52b15db7" y="162.549481"/>
     <use style="fill:#1f77b4;stroke:#ffffff;stroke-width:0.48;" x="167.367522" xlink:href="#m8f52b15db7" y="211.036678"/>
     <use style="fill:#1f77b4;stroke:#ffffff;stroke-width:0.48;" x="162.084313" xlink:href="#m8f52b15db7" y="153.353633"/>
     <use style="fill:#1f77b4;stroke:#ffffff;stroke-width:0.48;" x="163.177161" xlink:href="#m8f52b15db7" y="141.649827"/>
     <use style="fill:#1f77b4;stroke:#ffffff;stroke-width:0.48;" x="148.223657" xlink:href="#m8f52b15db7" y="170.909343"/>
     <use style="fill:#1f77b4;stroke:#ffffff;stroke-width:0.48;" x="168.918564" xlink:href="#m8f52b15db7" y="175.089273"/>
     <use style="fill:#1f77b4;stroke:#ffffff;stroke-width:0.48;" x="235.535551" xlink:href="#m8f52b15db7" y="145.829758"/>
     <use style="fill:#1f77b4;stroke:#ffffff;stroke-width:0.48;" x="221.250788" xlink:href="#m8f52b15db7" y="160.041522"/>
     <use style="fill:#1f77b4;stroke:#ffffff;stroke-width:0.48;" x="156.666836" xlink:href="#m8f52b15db7" y="171.745329"/>
     <use style="fill:#1f77b4;stroke:#ffffff;stroke-width:0.48;" x="188.51366" xlink:href="#m8f52b15db7" y="188.465052"/>
     <use style="fill:#1f77b4;stroke:#ffffff;stroke-width:0.48;" x="263.925603" xlink:href="#m8f52b15db7" y="138.305882"/>
     <use style="fill:#1f77b4;stroke:#ffffff;stroke-width:0.48;" x="243.205339" xlink:href="#m8f52b15db7" y="140.813841"/>
     <use style="fill:#1f77b4;stroke:#ffffff;stroke-width:0.48;" x="346.4686" xlink:href="#m8f52b15db7" y="53.035294"/>
     <use style="fill:#1f77b4;stroke:#ffffff;stroke-width:0.48;" x="149.844536" xlink:href="#m8f52b15db7" y="206.020761"/>
     <use style="fill:#1f77b4;stroke:#ffffff;stroke-width:0.48;" x="153.098451" xlink:href="#m8f52b15db7" y="167.565398"/>
     <use style="fill:#1f77b4;stroke:#ffffff;stroke-width:0.48;" x="124.516974" xlink:href="#m8f52b15db7" y="238.624221"/>
     <use style="fill:#1f77b4;stroke:#ffffff;stroke-width:0.48;" x="384.778881" xlink:href="#m8f52b15db7" y="14.579931"/>
     <use style="fill:#1f77b4;stroke:#ffffff;stroke-width:0.48;" x="173.850412" xlink:href="#m8f52b15db7" y="212.708651"/>
     <use style="fill:#1f77b4;stroke:#ffffff;stroke-width:0.48;" x="166.281844" xlink:href="#m8f52b15db7" y="189.301038"/>
     <use style="fill:#1f77b4;stroke:#ffffff;stroke-width:0.48;" x="127.400302" xlink:href="#m8f52b15db7" y="232.772318"/>
     <use style="fill:#1f77b4;stroke:#ffffff;stroke-width:0.48;" x="226.270346" xlink:href="#m8f52b15db7" y="186.79308"/>
     <use style="fill:#1f77b4;stroke:#ffffff;stroke-width:0.48;" x="211.089771" xlink:href="#m8f52b15db7" y="130.782007"/>
     <use style="fill:#1f77b4;stroke:#ffffff;stroke-width:0.48;" x="223.888444" xlink:href="#m8f52b15db7" y="86.47474"/>
     <use style="fill:#1f77b4;stroke:#ffffff;stroke-width:0.48;" x="270.393632" xlink:href="#m8f52b15db7" y="174.253287"/>
     <use style="fill:#1f77b4;stroke:#ffffff;stroke-width:0.48;" x="230.752417" xlink:href="#m8f52b15db7" y="117.406228"/>
     <use style="fill:#1f77b4;stroke:#ffffff;stroke-width:0.48;" x="238.48539" xlink:href="#m8f52b15db7" y="101.522491"/>
     <use style="fill:#1f77b4;stroke:#ffffff;stroke-width:0.48;" x="156.653534" xlink:href="#m8f52b15db7" y="180.10519"/>
     <use style="fill:#1f77b4;stroke:#ffffff;stroke-width:0.48;" x="128.879326" xlink:href="#m8f52b15db7" y="226.084429"/>
     <use style="fill:#1f77b4;stroke:#ffffff;stroke-width:0.48;" x="127.680789" xlink:href="#m8f52b15db7" y="201.004844"/>
     <use style="fill:#1f77b4;stroke:#ffffff;stroke-width:0.48;" x="117.036844" xlink:href="#m8f52b15db7" y="241.13218"/>
     <use style="fill:#1f77b4;stroke:#ffffff;stroke-width:0.48;" x="191.500807" xlink:href="#m8f52b15db7" y="182.613149"/>
     <use style="fill:#1f77b4;stroke:#ffffff;stroke-width:0.48;" x="137.965681" xlink:href="#m8f52b15db7" y="235.280277"/>
     <use style="fill:#1f77b4;stroke:#ffffff;stroke-width:0.48;" x="134.613559" xlink:href="#m8f52b15db7" y="216.888581"/>
     <use style="fill:#1f77b4;stroke:#ffffff;stroke-width:0.48;" x="118.712178" xlink:href="#m8f52b15db7" y="241.968166"/>
     <use style="fill:#1f77b4;stroke:#ffffff;stroke-width:0.48;" x="303.891472" xlink:href="#m8f52b15db7" y="112.390311"/>
     <use style="fill:#1f77b4;stroke:#ffffff;stroke-width:0.48;" x="150.368824" xlink:href="#m8f52b15db7" y="224.412457"/>
     <use style="fill:#1f77b4;stroke:#ffffff;stroke-width:0.48;" x="147.711424" xlink:href="#m8f52b15db7" y="215.216609"/>
     <use style="fill:#1f77b4;stroke:#ffffff;stroke-width:0.48;" x="122.849434" xlink:href="#m8f52b15db7" y="244.476125"/>
     <use style="fill:#1f77b4;stroke:#ffffff;stroke-width:0.48;" x="304.561668" xlink:href="#m8f52b15db7" y="96.506574"/>
     <use style="fill:#1f77b4;stroke:#ffffff;stroke-width:0.48;" x="131.841116" xlink:href="#m8f52b15db7" y="236.952249"/>
     <use style="fill:#1f77b4;stroke:#ffffff;stroke-width:0.48;" x="134.734524" xlink:href="#m8f52b15db7" y="227.756401"/>
     <use style="fill:#1f77b4;stroke:#ffffff;stroke-width:0.48;" x="118.678819" xlink:href="#m8f52b15db7" y="247.820069"/>
     <use style="fill:#1f77b4;stroke:#ffffff;stroke-width:0.48;" x="137.142407" xlink:href="#m8f52b15db7" y="213.544637"/>
     <use style="fill:#1f77b4;stroke:#ffffff;stroke-width:0.48;" x="150.400832" xlink:href="#m8f52b15db7" y="187.629066"/>
     <use style="fill:#1f77b4;stroke:#ffffff;stroke-width:0.48;" x="130.027254" xlink:href="#m8f52b15db7" y="193.480969"/>
     <use style="fill:#1f77b4;stroke:#ffffff;stroke-width:0.48;" x="147.53434" xlink:href="#m8f52b15db7" y="237.788235"/>
     <use style="fill:#1f77b4;stroke:#ffffff;stroke-width:0.48;" x="159.416208" xlink:href="#m8f52b15db7" y="203.512803"/>
     <use style="fill:#1f77b4;stroke:#ffffff;stroke-width:0.48;" x="163.161677" xlink:href="#m8f52b15db7" y="177.597232"/>
     <use style="fill:#1f77b4;stroke:#ffffff;stroke-width:0.48;" x="213.593991" xlink:href="#m8f52b15db7" y="204.348789"/>
     <use style="fill:#1f77b4;stroke:#ffffff;stroke-width:0.48;" x="195.31237" xlink:href="#m8f52b15db7" y="180.10519"/>
     <use style="fill:#1f77b4;stroke:#ffffff;stroke-width:0.48;" x="203.234794" xlink:href="#m8f52b15db7" y="156.697578"/>
     <use style="fill:#1f77b4;stroke:#ffffff;stroke-width:0.48;" x="223.753241" xlink:href="#m8f52b15db7" y="209.364706"/>
     <use style="fill:#1f77b4;stroke:#ffffff;stroke-width:0.48;" x="162.072778" xlink:href="#m8f52b15db7" y="180.941176"/>
     <use style="fill:#1f77b4;stroke:#ffffff;stroke-width:0.48;" x="191.310109" xlink:href="#m8f52b15db7" y="164.221453"/>
     <use style="fill:#1f77b4;stroke:#ffffff;stroke-width:0.48;" x="283.64842" xlink:href="#m8f52b15db7" y="179.269204"/>
     <use style="fill:#1f77b4;stroke:#ffffff;stroke-width:0.48;" x="264.826091" xlink:href="#m8f52b15db7" y="92.326644"/>
     <use style="fill:#1f77b4;stroke:#ffffff;stroke-width:0.48;" x="295.45297" xlink:href="#m8f52b15db7" y="48.855363"/>
     <use style="fill:#1f77b4;stroke:#ffffff;stroke-width:0.48;" x="155.869439" xlink:href="#m8f52b15db7" y="224.412457"/>
     <use style="fill:#1f77b4;stroke:#ffffff;stroke-width:0.48;" x="144.555299" xlink:href="#m8f52b15db7" y="223.576471"/>
     <use style="fill:#1f77b4;stroke:#ffffff;stroke-width:0.48;" x="135.950209" xlink:href="#m8f52b15db7" y="224.412457"/>
     <use style="fill:#1f77b4;stroke:#ffffff;stroke-width:0.48;" x="161.904839" xlink:href="#m8f52b15db7" y="216.052595"/>
     <use style="fill:#1f77b4;stroke:#ffffff;stroke-width:0.48;" x="137.479532" xlink:href="#m8f52b15db7" y="202.676817"/>
     <use style="fill:#1f77b4;stroke:#ffffff;stroke-width:0.48;" x="132.675925" xlink:href="#m8f52b15db7" y="190.97301"/>
     <use style="fill:#1f77b4;stroke:#ffffff;stroke-width:0.48;" x="120.60128" xlink:href="#m8f52b15db7" y="246.984083"/>
     <use style="fill:#1f77b4;stroke:#ffffff;stroke-width:0.48;" x="120.341266" xlink:href="#m8f52b15db7" y="241.13218"/>
     <use style="fill:#1f77b4;stroke:#ffffff;stroke-width:0.48;" x="123.654729" xlink:href="#m8f52b15db7" y="235.280277"/>
    </g>
   </g>
   <g id="matplotlib.axis_1">
    <g id="xtick_1">
     <g id="line2d_1">
      <path clip-path="url(#pa7972e6a48)" d="M 112.68 252 
L 112.68 34.56 
" style="fill:none;stroke:#b0b0b0;stroke-linecap:square;stroke-width:0.8;"/>
     </g>
     <g id="line2d_2">
      <defs>
       <path d="M 0 0 
L 0 3.5 
" id="mdd79ab2afc" style="stroke:#000000;stroke-width:0.8;"/>
      </defs>
      <g>
       <use style="stroke:#000000;stroke-width:0.8;" x="112.68" xlink:href="#mdd79ab2afc" y="252"/>
      </g>
     </g>
     <g id="text_1">
      <!-- 0.00 -->
      <g transform="translate(101.547188 266.598437)scale(0.1 -0.1)">
       <defs>
        <path d="M 31.78125 66.40625 
Q 24.171875 66.40625 20.328125 58.90625 
Q 16.5 51.421875 16.5 36.375 
Q 16.5 21.390625 20.328125 13.890625 
Q 24.171875 6.390625 31.78125 6.390625 
Q 39.453125 6.390625 43.28125 13.890625 
Q 47.125 21.390625 47.125 36.375 
Q 47.125 51.421875 43.28125 58.90625 
Q 39.453125 66.40625 31.78125 66.40625 
z
M 31.78125 74.21875 
Q 44.046875 74.21875 50.515625 64.515625 
Q 56.984375 54.828125 56.984375 36.375 
Q 56.984375 17.96875 50.515625 8.265625 
Q 44.046875 -1.421875 31.78125 -1.421875 
Q 19.53125 -1.421875 13.0625 8.265625 
Q 6.59375 17.96875 6.59375 36.375 
Q 6.59375 54.828125 13.0625 64.515625 
Q 19.53125 74.21875 31.78125 74.21875 
z
" id="DejaVuSans-48"/>
        <path d="M 10.6875 12.40625 
L 21 12.40625 
L 21 0 
L 10.6875 0 
z
" id="DejaVuSans-46"/>
       </defs>
       <use xlink:href="#DejaVuSans-48"/>
       <use x="63.623047" xlink:href="#DejaVuSans-46"/>
       <use x="95.410156" xlink:href="#DejaVuSans-48"/>
       <use x="159.033203" xlink:href="#DejaVuSans-48"/>
      </g>
     </g>
    </g>
    <g id="xtick_2">
     <g id="line2d_3">
      <path clip-path="url(#pa7972e6a48)" d="M 148.92 252 
L 148.92 34.56 
" style="fill:none;stroke:#b0b0b0;stroke-linecap:square;stroke-width:0.8;"/>
     </g>
     <g id="line2d_4">
      <g>
       <use style="stroke:#000000;stroke-width:0.8;" x="148.92" xlink:href="#mdd79ab2afc" y="252"/>
      </g>
     </g>
     <g id="text_2">
      <!-- 0.05 -->
      <g transform="translate(137.787188 266.598437)scale(0.1 -0.1)">
       <defs>
        <path d="M 10.796875 72.90625 
L 49.515625 72.90625 
L 49.515625 64.59375 
L 19.828125 64.59375 
L 19.828125 46.734375 
Q 21.96875 47.46875 24.109375 47.828125 
Q 26.265625 48.1875 28.421875 48.1875 
Q 40.625 48.1875 47.75 41.5 
Q 54.890625 34.8125 54.890625 23.390625 
Q 54.890625 11.625 47.5625 5.09375 
Q 40.234375 -1.421875 26.90625 -1.421875 
Q 22.3125 -1.421875 17.546875 -0.640625 
Q 12.796875 0.140625 7.71875 1.703125 
L 7.71875 11.625 
Q 12.109375 9.234375 16.796875 8.0625 
Q 21.484375 6.890625 26.703125 6.890625 
Q 35.15625 6.890625 40.078125 11.328125 
Q 45.015625 15.765625 45.015625 23.390625 
Q 45.015625 31 40.078125 35.4375 
Q 35.15625 39.890625 26.703125 39.890625 
Q 22.75 39.890625 18.8125 39.015625 
Q 14.890625 38.140625 10.796875 36.28125 
z
" id="DejaVuSans-53"/>
       </defs>
       <use xlink:href="#DejaVuSans-48"/>
       <use x="63.623047" xlink:href="#DejaVuSans-46"/>
       <use x="95.410156" xlink:href="#DejaVuSans-48"/>
       <use x="159.033203" xlink:href="#DejaVuSans-53"/>
      </g>
     </g>
    </g>
    <g id="xtick_3">
     <g id="line2d_5">
      <path clip-path="url(#pa7972e6a48)" d="M 185.16 252 
L 185.16 34.56 
" style="fill:none;stroke:#b0b0b0;stroke-linecap:square;stroke-width:0.8;"/>
     </g>
     <g id="line2d_6">
      <g>
       <use style="stroke:#000000;stroke-width:0.8;" x="185.16" xlink:href="#mdd79ab2afc" y="252"/>
      </g>
     </g>
     <g id="text_3">
      <!-- 0.10 -->
      <g transform="translate(174.027188 266.598437)scale(0.1 -0.1)">
       <defs>
        <path d="M 12.40625 8.296875 
L 28.515625 8.296875 
L 28.515625 63.921875 
L 10.984375 60.40625 
L 10.984375 69.390625 
L 28.421875 72.90625 
L 38.28125 72.90625 
L 38.28125 8.296875 
L 54.390625 8.296875 
L 54.390625 0 
L 12.40625 0 
z
" id="DejaVuSans-49"/>
       </defs>
       <use xlink:href="#DejaVuSans-48"/>
       <use x="63.623047" xlink:href="#DejaVuSans-46"/>
       <use x="95.410156" xlink:href="#DejaVuSans-49"/>
       <use x="159.033203" xlink:href="#DejaVuSans-48"/>
      </g>
     </g>
    </g>
    <g id="xtick_4">
     <g id="line2d_7">
      <path clip-path="url(#pa7972e6a48)" d="M 221.4 252 
L 221.4 34.56 
" style="fill:none;stroke:#b0b0b0;stroke-linecap:square;stroke-width:0.8;"/>
     </g>
     <g id="line2d_8">
      <g>
       <use style="stroke:#000000;stroke-width:0.8;" x="221.4" xlink:href="#mdd79ab2afc" y="252"/>
      </g>
     </g>
     <g id="text_4">
      <!-- 0.15 -->
      <g transform="translate(210.267188 266.598437)scale(0.1 -0.1)">
       <use xlink:href="#DejaVuSans-48"/>
       <use x="63.623047" xlink:href="#DejaVuSans-46"/>
       <use x="95.410156" xlink:href="#DejaVuSans-49"/>
       <use x="159.033203" xlink:href="#DejaVuSans-53"/>
      </g>
     </g>
    </g>
    <g id="xtick_5">
     <g id="line2d_9">
      <path clip-path="url(#pa7972e6a48)" d="M 257.64 252 
L 257.64 34.56 
" style="fill:none;stroke:#b0b0b0;stroke-linecap:square;stroke-width:0.8;"/>
     </g>
     <g id="line2d_10">
      <g>
       <use style="stroke:#000000;stroke-width:0.8;" x="257.64" xlink:href="#mdd79ab2afc" y="252"/>
      </g>
     </g>
     <g id="text_5">
      <!-- 0.20 -->
      <g transform="translate(246.507187 266.598437)scale(0.1 -0.1)">
       <defs>
        <path d="M 19.1875 8.296875 
L 53.609375 8.296875 
L 53.609375 0 
L 7.328125 0 
L 7.328125 8.296875 
Q 12.9375 14.109375 22.625 23.890625 
Q 32.328125 33.6875 34.8125 36.53125 
Q 39.546875 41.84375 41.421875 45.53125 
Q 43.3125 49.21875 43.3125 52.78125 
Q 43.3125 58.59375 39.234375 62.25 
Q 35.15625 65.921875 28.609375 65.921875 
Q 23.96875 65.921875 18.8125 64.3125 
Q 13.671875 62.703125 7.8125 59.421875 
L 7.8125 69.390625 
Q 13.765625 71.78125 18.9375 73 
Q 24.125 74.21875 28.421875 74.21875 
Q 39.75 74.21875 46.484375 68.546875 
Q 53.21875 62.890625 53.21875 53.421875 
Q 53.21875 48.921875 51.53125 44.890625 
Q 49.859375 40.875 45.40625 35.40625 
Q 44.1875 33.984375 37.640625 27.21875 
Q 31.109375 20.453125 19.1875 8.296875 
z
" id="DejaVuSans-50"/>
       </defs>
       <use xlink:href="#DejaVuSans-48"/>
       <use x="63.623047" xlink:href="#DejaVuSans-46"/>
       <use x="95.410156" xlink:href="#DejaVuSans-50"/>
       <use x="159.033203" xlink:href="#DejaVuSans-48"/>
      </g>
     </g>
    </g>
    <g id="xtick_6">
     <g id="line2d_11">
      <path clip-path="url(#pa7972e6a48)" d="M 293.88 252 
L 293.88 34.56 
" style="fill:none;stroke:#b0b0b0;stroke-linecap:square;stroke-width:0.8;"/>
     </g>
     <g id="line2d_12">
      <g>
       <use style="stroke:#000000;stroke-width:0.8;" x="293.88" xlink:href="#mdd79ab2afc" y="252"/>
      </g>
     </g>
     <g id="text_6">
      <!-- 0.25 -->
      <g transform="translate(282.747187 266.598437)scale(0.1 -0.1)">
       <use xlink:href="#DejaVuSans-48"/>
       <use x="63.623047" xlink:href="#DejaVuSans-46"/>
       <use x="95.410156" xlink:href="#DejaVuSans-50"/>
       <use x="159.033203" xlink:href="#DejaVuSans-53"/>
      </g>
     </g>
    </g>
    <g id="xtick_7">
     <g id="line2d_13">
      <path clip-path="url(#pa7972e6a48)" d="M 330.12 252 
L 330.12 34.56 
" style="fill:none;stroke:#b0b0b0;stroke-linecap:square;stroke-width:0.8;"/>
     </g>
     <g id="line2d_14">
      <g>
       <use style="stroke:#000000;stroke-width:0.8;" x="330.12" xlink:href="#mdd79ab2afc" y="252"/>
      </g>
     </g>
     <g id="text_7">
      <!-- 0.30 -->
      <g transform="translate(318.987188 266.598437)scale(0.1 -0.1)">
       <defs>
        <path d="M 40.578125 39.3125 
Q 47.65625 37.796875 51.625 33 
Q 55.609375 28.21875 55.609375 21.1875 
Q 55.609375 10.40625 48.1875 4.484375 
Q 40.765625 -1.421875 27.09375 -1.421875 
Q 22.515625 -1.421875 17.65625 -0.515625 
Q 12.796875 0.390625 7.625 2.203125 
L 7.625 11.71875 
Q 11.71875 9.328125 16.59375 8.109375 
Q 21.484375 6.890625 26.8125 6.890625 
Q 36.078125 6.890625 40.9375 10.546875 
Q 45.796875 14.203125 45.796875 21.1875 
Q 45.796875 27.640625 41.28125 31.265625 
Q 36.765625 34.90625 28.71875 34.90625 
L 20.21875 34.90625 
L 20.21875 43.015625 
L 29.109375 43.015625 
Q 36.375 43.015625 40.234375 45.921875 
Q 44.09375 48.828125 44.09375 54.296875 
Q 44.09375 59.90625 40.109375 62.90625 
Q 36.140625 65.921875 28.71875 65.921875 
Q 24.65625 65.921875 20.015625 65.03125 
Q 15.375 64.15625 9.8125 62.3125 
L 9.8125 71.09375 
Q 15.4375 72.65625 20.34375 73.4375 
Q 25.25 74.21875 29.59375 74.21875 
Q 40.828125 74.21875 47.359375 69.109375 
Q 53.90625 64.015625 53.90625 55.328125 
Q 53.90625 49.265625 50.4375 45.09375 
Q 46.96875 40.921875 40.578125 39.3125 
z
" id="DejaVuSans-51"/>
       </defs>
       <use xlink:href="#DejaVuSans-48"/>
       <use x="63.623047" xlink:href="#DejaVuSans-46"/>
       <use x="95.410156" xlink:href="#DejaVuSans-51"/>
       <use x="159.033203" xlink:href="#DejaVuSans-48"/>
      </g>
     </g>
    </g>
    <g id="text_8">
     <!-- Electoral_Proportion -->
     <g transform="translate(171.201562 280.276563)scale(0.1 -0.1)">
      <defs>
       <path d="M 9.8125 72.90625 
L 55.90625 72.90625 
L 55.90625 64.59375 
L 19.671875 64.59375 
L 19.671875 43.015625 
L 54.390625 43.015625 
L 54.390625 34.71875 
L 19.671875 34.71875 
L 19.671875 8.296875 
L 56.78125 8.296875 
L 56.78125 0 
L 9.8125 0 
z
" id="DejaVuSans-69"/>
       <path d="M 9.421875 75.984375 
L 18.40625 75.984375 
L 18.40625 0 
L 9.421875 0 
z
" id="DejaVuSans-108"/>
       <path d="M 56.203125 29.59375 
L 56.203125 25.203125 
L 14.890625 25.203125 
Q 15.484375 15.921875 20.484375 11.0625 
Q 25.484375 6.203125 34.421875 6.203125 
Q 39.59375 6.203125 44.453125 7.46875 
Q 49.3125 8.734375 54.109375 11.28125 
L 54.109375 2.78125 
Q 49.265625 0.734375 44.1875 -0.34375 
Q 39.109375 -1.421875 33.890625 -1.421875 
Q 20.796875 -1.421875 13.15625 6.1875 
Q 5.515625 13.8125 5.515625 26.8125 
Q 5.515625 40.234375 12.765625 48.109375 
Q 20.015625 56 32.328125 56 
Q 43.359375 56 49.78125 48.890625 
Q 56.203125 41.796875 56.203125 29.59375 
z
M 47.21875 32.234375 
Q 47.125 39.59375 43.09375 43.984375 
Q 39.0625 48.390625 32.421875 48.390625 
Q 24.90625 48.390625 20.390625 44.140625 
Q 15.875 39.890625 15.1875 32.171875 
z
" id="DejaVuSans-101"/>
       <path d="M 48.78125 52.59375 
L 48.78125 44.1875 
Q 44.96875 46.296875 41.140625 47.34375 
Q 37.3125 48.390625 33.40625 48.390625 
Q 24.65625 48.390625 19.8125 42.84375 
Q 14.984375 37.3125 14.984375 27.296875 
Q 14.984375 17.28125 19.8125 11.734375 
Q 24.65625 6.203125 33.40625 6.203125 
Q 37.3125 6.203125 41.140625 7.25 
Q 44.96875 8.296875 48.78125 10.40625 
L 48.78125 2.09375 
Q 45.015625 0.34375 40.984375 -0.53125 
Q 36.96875 -1.421875 32.421875 -1.421875 
Q 20.0625 -1.421875 12.78125 6.34375 
Q 5.515625 14.109375 5.515625 27.296875 
Q 5.515625 40.671875 12.859375 48.328125 
Q 20.21875 56 33.015625 56 
Q 37.15625 56 41.109375 55.140625 
Q 45.0625 54.296875 48.78125 52.59375 
z
" id="DejaVuSans-99"/>
       <path d="M 18.3125 70.21875 
L 18.3125 54.6875 
L 36.8125 54.6875 
L 36.8125 47.703125 
L 18.3125 47.703125 
L 18.3125 18.015625 
Q 18.3125 11.328125 20.140625 9.421875 
Q 21.96875 7.515625 27.59375 7.515625 
L 36.8125 7.515625 
L 36.8125 0 
L 27.59375 0 
Q 17.1875 0 13.234375 3.875 
Q 9.28125 7.765625 9.28125 18.015625 
L 9.28125 47.703125 
L 2.6875 47.703125 
L 2.6875 54.6875 
L 9.28125 54.6875 
L 9.28125 70.21875 
z
" id="DejaVuSans-116"/>
       <path d="M 30.609375 48.390625 
Q 23.390625 48.390625 19.1875 42.75 
Q 14.984375 37.109375 14.984375 27.296875 
Q 14.984375 17.484375 19.15625 11.84375 
Q 23.34375 6.203125 30.609375 6.203125 
Q 37.796875 6.203125 41.984375 11.859375 
Q 46.1875 17.53125 46.1875 27.296875 
Q 46.1875 37.015625 41.984375 42.703125 
Q 37.796875 48.390625 30.609375 48.390625 
z
M 30.609375 56 
Q 42.328125 56 49.015625 48.375 
Q 55.71875 40.765625 55.71875 27.296875 
Q 55.71875 13.875 49.015625 6.21875 
Q 42.328125 -1.421875 30.609375 -1.421875 
Q 18.84375 -1.421875 12.171875 6.21875 
Q 5.515625 13.875 5.515625 27.296875 
Q 5.515625 40.765625 12.171875 48.375 
Q 18.84375 56 30.609375 56 
z
" id="DejaVuSans-111"/>
       <path d="M 41.109375 46.296875 
Q 39.59375 47.171875 37.8125 47.578125 
Q 36.03125 48 33.890625 48 
Q 26.265625 48 22.1875 43.046875 
Q 18.109375 38.09375 18.109375 28.8125 
L 18.109375 0 
L 9.078125 0 
L 9.078125 54.6875 
L 18.109375 54.6875 
L 18.109375 46.1875 
Q 20.953125 51.171875 25.484375 53.578125 
Q 30.03125 56 36.53125 56 
Q 37.453125 56 38.578125 55.875 
Q 39.703125 55.765625 41.0625 55.515625 
z
" id="DejaVuSans-114"/>
       <path d="M 34.28125 27.484375 
Q 23.390625 27.484375 19.1875 25 
Q 14.984375 22.515625 14.984375 16.5 
Q 14.984375 11.71875 18.140625 8.90625 
Q 21.296875 6.109375 26.703125 6.109375 
Q 34.1875 6.109375 38.703125 11.40625 
Q 43.21875 16.703125 43.21875 25.484375 
L 43.21875 27.484375 
z
M 52.203125 31.203125 
L 52.203125 0 
L 43.21875 0 
L 43.21875 8.296875 
Q 40.140625 3.328125 35.546875 0.953125 
Q 30.953125 -1.421875 24.3125 -1.421875 
Q 15.921875 -1.421875 10.953125 3.296875 
Q 6 8.015625 6 15.921875 
Q 6 25.140625 12.171875 29.828125 
Q 18.359375 34.515625 30.609375 34.515625 
L 43.21875 34.515625 
L 43.21875 35.40625 
Q 43.21875 41.609375 39.140625 45 
Q 35.0625 48.390625 27.6875 48.390625 
Q 23 48.390625 18.546875 47.265625 
Q 14.109375 46.140625 10.015625 43.890625 
L 10.015625 52.203125 
Q 14.9375 54.109375 19.578125 55.046875 
Q 24.21875 56 28.609375 56 
Q 40.484375 56 46.34375 49.84375 
Q 52.203125 43.703125 52.203125 31.203125 
z
" id="DejaVuSans-97"/>
       <path d="M 50.984375 -16.609375 
L 50.984375 -23.578125 
L -0.984375 -23.578125 
L -0.984375 -16.609375 
z
" id="DejaVuSans-95"/>
       <path d="M 19.671875 64.796875 
L 19.671875 37.40625 
L 32.078125 37.40625 
Q 38.96875 37.40625 42.71875 40.96875 
Q 46.484375 44.53125 46.484375 51.125 
Q 46.484375 57.671875 42.71875 61.234375 
Q 38.96875 64.796875 32.078125 64.796875 
z
M 9.8125 72.90625 
L 32.078125 72.90625 
Q 44.34375 72.90625 50.609375 67.359375 
Q 56.890625 61.8125 56.890625 51.125 
Q 56.890625 40.328125 50.609375 34.8125 
Q 44.34375 29.296875 32.078125 29.296875 
L 19.671875 29.296875 
L 19.671875 0 
L 9.8125 0 
z
" id="DejaVuSans-80"/>
       <path d="M 18.109375 8.203125 
L 18.109375 -20.796875 
L 9.078125 -20.796875 
L 9.078125 54.6875 
L 18.109375 54.6875 
L 18.109375 46.390625 
Q 20.953125 51.265625 25.265625 53.625 
Q 29.59375 56 35.59375 56 
Q 45.5625 56 51.78125 48.09375 
Q 58.015625 40.1875 58.015625 27.296875 
Q 58.015625 14.40625 51.78125 6.484375 
Q 45.5625 -1.421875 35.59375 -1.421875 
Q 29.59375 -1.421875 25.265625 0.953125 
Q 20.953125 3.328125 18.109375 8.203125 
z
M 48.6875 27.296875 
Q 48.6875 37.203125 44.609375 42.84375 
Q 40.53125 48.484375 33.40625 48.484375 
Q 26.265625 48.484375 22.1875 42.84375 
Q 18.109375 37.203125 18.109375 27.296875 
Q 18.109375 17.390625 22.1875 11.75 
Q 26.265625 6.109375 33.40625 6.109375 
Q 40.53125 6.109375 44.609375 11.75 
Q 48.6875 17.390625 48.6875 27.296875 
z
" id="DejaVuSans-112"/>
       <path d="M 9.421875 54.6875 
L 18.40625 54.6875 
L 18.40625 0 
L 9.421875 0 
z
M 9.421875 75.984375 
L 18.40625 75.984375 
L 18.40625 64.59375 
L 9.421875 64.59375 
z
" id="DejaVuSans-105"/>
       <path d="M 54.890625 33.015625 
L 54.890625 0 
L 45.90625 0 
L 45.90625 32.71875 
Q 45.90625 40.484375 42.875 44.328125 
Q 39.84375 48.1875 33.796875 48.1875 
Q 26.515625 48.1875 22.3125 43.546875 
Q 18.109375 38.921875 18.109375 30.90625 
L 18.109375 0 
L 9.078125 0 
L 9.078125 54.6875 
L 18.109375 54.6875 
L 18.109375 46.1875 
Q 21.34375 51.125 25.703125 53.5625 
Q 30.078125 56 35.796875 56 
Q 45.21875 56 50.046875 50.171875 
Q 54.890625 44.34375 54.890625 33.015625 
z
" id="DejaVuSans-110"/>
      </defs>
      <use xlink:href="#DejaVuSans-69"/>
      <use x="63.183594" xlink:href="#DejaVuSans-108"/>
      <use x="90.966797" xlink:href="#DejaVuSans-101"/>
      <use x="152.490234" xlink:href="#DejaVuSans-99"/>
      <use x="207.470703" xlink:href="#DejaVuSans-116"/>
      <use x="246.679688" xlink:href="#DejaVuSans-111"/>
      <use x="307.861328" xlink:href="#DejaVuSans-114"/>
      <use x="348.974609" xlink:href="#DejaVuSans-97"/>
      <use x="410.253906" xlink:href="#DejaVuSans-108"/>
      <use x="438.037109" xlink:href="#DejaVuSans-95"/>
      <use x="488.037109" xlink:href="#DejaVuSans-80"/>
      <use x="546.589844" xlink:href="#DejaVuSans-114"/>
      <use x="585.453125" xlink:href="#DejaVuSans-111"/>
      <use x="646.634766" xlink:href="#DejaVuSans-112"/>
      <use x="710.111328" xlink:href="#DejaVuSans-111"/>
      <use x="771.292969" xlink:href="#DejaVuSans-114"/>
      <use x="812.40625" xlink:href="#DejaVuSans-116"/>
      <use x="851.615234" xlink:href="#DejaVuSans-105"/>
      <use x="879.398438" xlink:href="#DejaVuSans-111"/>
      <use x="940.580078" xlink:href="#DejaVuSans-110"/>
     </g>
    </g>
   </g>
   <g id="matplotlib.axis_2">
    <g id="ytick_1">
     <g id="line2d_15">
      <path clip-path="url(#pa7972e6a48)" d="M 112.68 252 
L 330.12 252 
" style="fill:none;stroke:#b0b0b0;stroke-linecap:square;stroke-width:0.8;"/>
     </g>
     <g id="line2d_16">
      <defs>
       <path d="M 0 0 
L -3.5 0 
" id="mce2030ed2a" style="stroke:#000000;stroke-width:0.8;"/>
      </defs>
      <g>
       <use style="stroke:#000000;stroke-width:0.8;" x="112.68" xlink:href="#mce2030ed2a" y="252"/>
      </g>
     </g>
     <g id="text_9">
      <!-- 0.00 -->
      <g transform="translate(83.414375 255.799219)scale(0.1 -0.1)">
       <use xlink:href="#DejaVuSans-48"/>
       <use x="63.623047" xlink:href="#DejaVuSans-46"/>
       <use x="95.410156" xlink:href="#DejaVuSans-48"/>
       <use x="159.033203" xlink:href="#DejaVuSans-48"/>
      </g>
     </g>
    </g>
    <g id="ytick_2">
     <g id="line2d_17">
      <path clip-path="url(#pa7972e6a48)" d="M 112.68 215.76 
L 330.12 215.76 
" style="fill:none;stroke:#b0b0b0;stroke-linecap:square;stroke-width:0.8;"/>
     </g>
     <g id="line2d_18">
      <g>
       <use style="stroke:#000000;stroke-width:0.8;" x="112.68" xlink:href="#mce2030ed2a" y="215.76"/>
      </g>
     </g>
     <g id="text_10">
      <!-- 0.05 -->
      <g transform="translate(83.414375 219.559219)scale(0.1 -0.1)">
       <use xlink:href="#DejaVuSans-48"/>
       <use x="63.623047" xlink:href="#DejaVuSans-46"/>
       <use x="95.410156" xlink:href="#DejaVuSans-48"/>
       <use x="159.033203" xlink:href="#DejaVuSans-53"/>
      </g>
     </g>
    </g>
    <g id="ytick_3">
     <g id="line2d_19">
      <path clip-path="url(#pa7972e6a48)" d="M 112.68 179.52 
L 330.12 179.52 
" style="fill:none;stroke:#b0b0b0;stroke-linecap:square;stroke-width:0.8;"/>
     </g>
     <g id="line2d_20">
      <g>
       <use style="stroke:#000000;stroke-width:0.8;" x="112.68" xlink:href="#mce2030ed2a" y="179.52"/>
      </g>
     </g>
     <g id="text_11">
      <!-- 0.10 -->
      <g transform="translate(83.414375 183.319219)scale(0.1 -0.1)">
       <use xlink:href="#DejaVuSans-48"/>
       <use x="63.623047" xlink:href="#DejaVuSans-46"/>
       <use x="95.410156" xlink:href="#DejaVuSans-49"/>
       <use x="159.033203" xlink:href="#DejaVuSans-48"/>
      </g>
     </g>
    </g>
    <g id="ytick_4">
     <g id="line2d_21">
      <path clip-path="url(#pa7972e6a48)" d="M 112.68 143.28 
L 330.12 143.28 
" style="fill:none;stroke:#b0b0b0;stroke-linecap:square;stroke-width:0.8;"/>
     </g>
     <g id="line2d_22">
      <g>
       <use style="stroke:#000000;stroke-width:0.8;" x="112.68" xlink:href="#mce2030ed2a" y="143.28"/>
      </g>
     </g>
     <g id="text_12">
      <!-- 0.15 -->
      <g transform="translate(83.414375 147.079219)scale(0.1 -0.1)">
       <use xlink:href="#DejaVuSans-48"/>
       <use x="63.623047" xlink:href="#DejaVuSans-46"/>
       <use x="95.410156" xlink:href="#DejaVuSans-49"/>
       <use x="159.033203" xlink:href="#DejaVuSans-53"/>
      </g>
     </g>
    </g>
    <g id="ytick_5">
     <g id="line2d_23">
      <path clip-path="url(#pa7972e6a48)" d="M 112.68 107.04 
L 330.12 107.04 
" style="fill:none;stroke:#b0b0b0;stroke-linecap:square;stroke-width:0.8;"/>
     </g>
     <g id="line2d_24">
      <g>
       <use style="stroke:#000000;stroke-width:0.8;" x="112.68" xlink:href="#mce2030ed2a" y="107.04"/>
      </g>
     </g>
     <g id="text_13">
      <!-- 0.20 -->
      <g transform="translate(83.414375 110.839219)scale(0.1 -0.1)">
       <use xlink:href="#DejaVuSans-48"/>
       <use x="63.623047" xlink:href="#DejaVuSans-46"/>
       <use x="95.410156" xlink:href="#DejaVuSans-50"/>
       <use x="159.033203" xlink:href="#DejaVuSans-48"/>
      </g>
     </g>
    </g>
    <g id="ytick_6">
     <g id="line2d_25">
      <path clip-path="url(#pa7972e6a48)" d="M 112.68 70.8 
L 330.12 70.8 
" style="fill:none;stroke:#b0b0b0;stroke-linecap:square;stroke-width:0.8;"/>
     </g>
     <g id="line2d_26">
      <g>
       <use style="stroke:#000000;stroke-width:0.8;" x="112.68" xlink:href="#mce2030ed2a" y="70.8"/>
      </g>
     </g>
     <g id="text_14">
      <!-- 0.25 -->
      <g transform="translate(83.414375 74.599219)scale(0.1 -0.1)">
       <use xlink:href="#DejaVuSans-48"/>
       <use x="63.623047" xlink:href="#DejaVuSans-46"/>
       <use x="95.410156" xlink:href="#DejaVuSans-50"/>
       <use x="159.033203" xlink:href="#DejaVuSans-53"/>
      </g>
     </g>
    </g>
    <g id="ytick_7">
     <g id="line2d_27">
      <path clip-path="url(#pa7972e6a48)" d="M 112.68 34.56 
L 330.12 34.56 
" style="fill:none;stroke:#b0b0b0;stroke-linecap:square;stroke-width:0.8;"/>
     </g>
     <g id="line2d_28">
      <g>
       <use style="stroke:#000000;stroke-width:0.8;" x="112.68" xlink:href="#mce2030ed2a" y="34.56"/>
      </g>
     </g>
     <g id="text_15">
      <!-- 0.30 -->
      <g transform="translate(83.414375 38.359219)scale(0.1 -0.1)">
       <use xlink:href="#DejaVuSans-48"/>
       <use x="63.623047" xlink:href="#DejaVuSans-46"/>
       <use x="95.410156" xlink:href="#DejaVuSans-51"/>
       <use x="159.033203" xlink:href="#DejaVuSans-48"/>
      </g>
     </g>
    </g>
    <g id="text_16">
     <!-- Poll_Proportion -->
     <g transform="translate(77.056563 180.247187)rotate(-90)scale(0.1 -0.1)">
      <use xlink:href="#DejaVuSans-80"/>
      <use x="56.677734" xlink:href="#DejaVuSans-111"/>
      <use x="117.859375" xlink:href="#DejaVuSans-108"/>
      <use x="145.642578" xlink:href="#DejaVuSans-108"/>
      <use x="173.425781" xlink:href="#DejaVuSans-95"/>
      <use x="223.425781" xlink:href="#DejaVuSans-80"/>
      <use x="281.978516" xlink:href="#DejaVuSans-114"/>
      <use x="320.841797" xlink:href="#DejaVuSans-111"/>
      <use x="382.023438" xlink:href="#DejaVuSans-112"/>
      <use x="445.5" xlink:href="#DejaVuSans-111"/>
      <use x="506.681641" xlink:href="#DejaVuSans-114"/>
      <use x="547.794922" xlink:href="#DejaVuSans-116"/>
      <use x="587.003906" xlink:href="#DejaVuSans-105"/>
      <use x="614.787109" xlink:href="#DejaVuSans-111"/>
      <use x="675.96875" xlink:href="#DejaVuSans-110"/>
     </g>
    </g>
   </g>
   <g id="line2d_29">
    <path clip-path="url(#pa7972e6a48)" d="M 112.68 252 
L 365.68 -1 
" style="fill:none;stroke:#4c4c4c;stroke-dasharray:5.55,2.4;stroke-dashoffset:0;stroke-width:1.5;"/>
   </g>
   <g id="patch_3">
    <path d="M 112.68 252 
L 112.68 34.56 
" style="fill:none;stroke:#000000;stroke-linecap:square;stroke-linejoin:miter;stroke-width:0.8;"/>
   </g>
   <g id="patch_4">
    <path d="M 330.12 252 
L 330.12 34.56 
" style="fill:none;stroke:#000000;stroke-linecap:square;stroke-linejoin:miter;stroke-width:0.8;"/>
   </g>
   <g id="patch_5">
    <path d="M 112.68 252 
L 330.12 252 
" style="fill:none;stroke:#000000;stroke-linecap:square;stroke-linejoin:miter;stroke-width:0.8;"/>
   </g>
   <g id="patch_6">
    <path d="M 112.68 34.56 
L 330.12 34.56 
" style="fill:none;stroke:#000000;stroke-linecap:square;stroke-linejoin:miter;stroke-width:0.8;"/>
   </g>
  </g>
 </g>
 <defs>
  <clipPath id="pa7972e6a48">
   <rect height="217.44" width="217.44" x="112.68" y="34.56"/>
  </clipPath>
 </defs>
</svg>
